<svg xmlns="http://www.w3.org/2000/svg" width="100%" height="100%" viewBox="0 0 473 162" fill-rule="evenodd" stroke-miterlimit="10"><g transform="matrix(.24 0 0 .24 -6.25915 -6.25939)"><g stroke-width="3.215" stroke="#fff" fill="none"><path d="M606.345 153.126C535.398 214.6 458 156.66 497 71.272c-14.816 32.43-52.997 18.193-42.95-16.025-10.046 34.217-49.873 25.553-44.797-9.745-9.494 66.036-81.955 66.036-91.448 0 28.556 198.614-73.686 300.856-272.3 272.3 228.153 32.802 318.025 136.52 318.025 367.016 0-93.872 94.474-114.426 133.472-29.036-14.816-32.43 20.955-51.964 40.233-21.97C412.616 439.9 432.15 304.068 606.345 153.127z"/><path d="M573.93 120.7c-23.348 26.95-55.974 2.525-36.697-27.47-50.75 78.967-141.34 45.18-127.98-47.738-5.076 35.297-45.724 32.4-45.724-3.268 0 35.658-40.65 38.565-45.724 3.268 37.662 261.96 29.765 372.373-44.796 626.308 18.796-64.013 90.52-53.704 90.52 13.012 0-93.875 94.474-114.426 133.472-29.04-101.638-222.548-83.29-350.167 76.93-535.07v-.002z"/><path d="M71.272 230.056c32.43 14.814 18.193 52.998-16.025 42.952 228.444 67.076 308.28 173.73 308.28 411.812 0-117.702 110.066-150.022 173.705-51.005-63.64-99.017 11.487-185.7 118.55-136.815-32.43-14.816-18.192-53 16.024-42.95C415.234 378.708 314.504 341.142 71.27 230.056h.002z"/><path d="M633.814 189.824C447.218 309.74 309.74 279.836 189.823 93.24c19.278 29.994-13.35 54.418-36.698 27.47 23.35 26.95-5.467 55.765-32.416 32.416 88.953 77.08 41.3 181.43-75.207 164.678 35.297 5.076 32.4 45.724-3.268 45.724 93.873 0 114.425 94.474 29.037 133.472 32.43-14.816 51.963 20.956 21.97 40.233 29.994-19.277 54.418 13.35 27.47 36.697 26.95-23.348 55.765 5.466 32.416 32.416 23.35-26.95 55.976-2.527 36.698 27.47C318.54 433.53 443.365 386.972 671.807 454.05c-150.798-44.28-170.205-179.26-37.993-264.226z"/><path d="M120.7 153.126c26.95 23.35 2.525 55.976-27.47 36.698 116.66 74.972 89.525 199.694-47.738 219.43 35.297-5.076 43.962 34.75 9.744 44.797C89.464 444.003 103.7 482.184 71.272 497c60.683-27.717 99.857 33.245 49.438 76.93 26.95-23.348 55.765 5.466 32.416 32.416 145.25-167.63 135.214-307.97-32.416-453.22zm560.85 164.678c-66.035 9.494-86.452-60.03-25.768-87.747-235.617 107.607-318.12 190.1-425.728 425.727 27.716-60.684 97.24-40.268 87.747 25.768 9.494-66.035 81.954-66.035 91.45 0-5.076-35.298 34.747-43.96 44.793-9.744C444 637.592 482.183 623.352 497 655.783c-27.718-60.684 33.245-99.858 76.93-49.438-23.348-26.95 5.466-55.764 32.416-32.416-26.95-23.348-2.527-55.974 27.47-36.697-78.967-50.75-45.183-141.34 47.737-127.98-66.035-9.495-66.035-81.955 0-91.45z"/><path d="M684.82 363.528c-35.657 0-38.566-40.648-3.268-45.724-35.298 5.076-43.964-34.75-9.744-44.796-34.22 10.046-48.455-28.138-16.024-42.952-32.43 14.814-51.964-20.955-21.97-40.232C465.008 298.306 329.54 247.778 273.006 55.248c10.046 34.217-28.137 48.454-42.95 16.025C287.66 197.41 197.407 287.663 71.27 230.056c240.733 109.94 348.9 133.472 613.55 133.472z"/></g><g fill="#fff" transform="matrix(1.55416 0 0 1.55416 -1967.390015 -2237.73999)"><path d="M2204.822 1467.012h1.25v413.267h-1.25z"/><path d="M2234.193 1806.98c1.996 6.6 5.933 9.63 12.83 9.63 5.842 0 10.97-3.383 10.97-9.525 0-5.188-2.042-7.683-12.175-11.48-6.633-2.496-7.337-4.242-7.337-6.687 0-4.246 2.9-6.642 7.092-6.642 4.592 0 7.387 2.792 8.688 6.787l2.838-.85c-1.642-5.533-5.833-8.62-11.525-8.62-6.687 0-10.38 3.98-10.38 9.325 0 11.93 19.517 8.13 19.517 17.82 0 4.333-2.696 7.183-7.192 7.183-5.687 0-8.887-2.392-10.28-7.883l-3.046.942zm52.646 9.133v-2.692h-18.217v-14.675h12.43v-2.688h-12.43v-13.283h17.27v-2.687h-20.554v36.025h21.5zm6.542 0h3.292v-36.03h-3.292v36.03zm10.133-33.337h10.68v33.337h3.288v-33.337h10.68v-2.687h-24.646v2.687zm58.063 33.337v-2.692h-5.992v-33.83h-2.088l-8.087 2.638v1.95l6.883-.996v30.238h-6.183v2.692h15.467zm3.487-6.68c2.042 4.887 6.283 7.175 12.125 7.175 7.134 0 12.32-3.088 12.32-10.67 0-4.946-2.892-7.588-6.883-9.087 4.187-1.896 5.783-4.342 5.783-8.483 0-6.734-6.23-8.775-10.87-8.775-3.946 0-7.488 1.583-10.883 5.683l2.35 1.696c2.492-3.15 4.933-4.696 8.283-4.696 4.837 0 7.837 1.896 7.837 6.387 0 4.796-3.396 6.996-9.887 6.996h-2.696v2.692h3.292c6.792 0 10.383 2.496 10.383 7.68 0 5.1-2.842 7.892-8.883 7.892-4.687 0-7.433-1.396-9.63-5.992l-2.642 1.504zm43.096-29.842c-6.837 0-11.275 3.088-11.275 9.117 0 3.946 2.392 6.842 6.88 8.438-6.187 2.8-8.28 6.096-8.28 9.688 0 7.187 5.188 9.775 12.675 9.775s12.675-2.588 12.675-9.775c0-3.592-2.092-6.888-8.283-9.688 4.492-1.596 6.887-4.492 6.887-8.438 0-6.03-4.437-9.117-11.28-9.117zm-9.38 27.242c0-3.892 3.492-5.888 9.38-8.292 5.892 2.404 9.383 4.4 9.383 8.292 0 4.896-4.088 7.087-9.383 7.087-5.288 0-9.38-2.192-9.38-7.087zm1.392-18.27c0-4.246 3.292-6.287 7.988-6.287s7.988 2.042 7.988 6.287c0 3.896-3.496 6.092-7.988 7.292-4.492-1.2-7.988-3.396-7.988-7.292zm48.75-5.992c-2.487-1.896-5.383-2.98-8.525-2.98-10.192 0-14.38 10.725-14.38 19.804 0 8.287 2.342 17.213 12.38 17.213 6.533 0 12.175-4.284 12.175-11.17 0-6.692-4.242-11.875-11.58-11.875-3.742 0-7.292 2.087-9.684 4.787 0-6.837 2.796-16.075 11.03-16.075 2.75 0 5.246.604 7.092 2.746l1.492-2.45zm-1.646 22.32c0 5.583-3.192 9.03-8.78 9.03-5.496 0-9.088-4.142-9.088-10.63 0-1.304 3.742-7.042 9.033-7.042 5.692 0 8.833 3.696 8.833 8.64m-210.83-74.47h17.267l-18.817 30.646v2.688h23.154v-2.688H2239l18.804-30.546v-2.792h-21.35v2.692zm28.896-2.692v24.254c0 8.183 4.283 12.27 13.02 12.27s13.025-4.088 13.025-12.27v-24.254h-3.292v24.558c0 6.883-3.346 9.275-9.733 9.275s-9.738-2.392-9.738-9.275v-24.558h-3.283zm36.025 36.025h3.292v-12.02l6.792-7.838 11.43 19.858h3.688l-13.025-22.254 11.625-13.77h-4.038l-16.47 19.558v-19.558h-3.292v36.025zm30.5-36.025v24.254c0 8.183 4.283 12.27 13.02 12.27 8.73 0 13.02-4.088 13.02-12.27v-24.254h-3.288v24.558c0 6.883-3.346 9.275-9.733 9.275s-9.737-2.392-9.737-9.275v-24.558h-3.283zm36.025 36.025h3.292v-33.333h.096l19.27 33.333h3.387v-36.025h-3.287v30.042h-.1l-17.13-30.042h-5.53v36.025zm39.32 0v-17.363h13.03v-2.692h-13.03v-13.28h17.867v-2.692h-21.15v36.025h3.283zm21.02-33.333h10.675v33.333h3.287v-33.333h10.68v-2.692h-24.642v2.692m-186.133-18.92v-16.146h14.483v16.146h7.183v-37.596h-7.183v14.996h-14.483v-14.996h-7.183v37.596h7.183zm55.884 0v-6.037h-18.28v-10.525h12.863v-6.038H2279.7v-8.962h17.708v-6.033h-24.888v37.596h25.458zm7.037 0h7.18v-37.596h-7.18v37.596zm16.354 0h12.442c9.954 0 16.825-5.516 16.875-18.8-.05-13.28-6.92-18.796-16.875-18.796h-12.442v37.596zm7.18-31.562h4.796c8.233 0 10.163 6.042 10.163 12.763s-1.93 12.763-10.163 12.763h-4.796v-25.525zm53.338 31.562v-6.037h-18.283v-10.525h12.863v-6.038h-12.863v-8.962h17.708v-6.033h-24.892v37.596h25.467zm29.58 0v-6.037h-16.354v-31.558h-7.18v37.596h23.533zm5.425 0h13.85c9.583 0 13.696-4.054 13.696-9.887 0-5.738-1.667-7.975-6.56-9.954 4.113-1.612 5.725-4.63 5.725-8.537-.417-6.72-5.258-9.217-12.754-9.217h-13.958v37.596zm7.183-16.775h7.188c4.17 0 5.996 1.883 5.996 5.48s-1.825 5.467-5.996 5.467h-7.187v-10.946zm0-14.996h7.188c3.442 0 5.158 1.975 5.158 4.58 0 2.613-1.717 4.592-5.158 4.592h-7.187v-9.17zm53.33 31.77v-6.037h-18.275v-10.525h12.862v-6.038h-12.862v-8.962h17.708v-6.033h-24.896v37.596h25.462zm13.23 0v-15.3h6.2l7.087 15.308h7.963l-8.275-16.775c4.58-1.292 6.925-5.046 6.87-9.683-.054-6.2-3.488-11.137-12.03-11.137h-14.992v37.596h7.175zm0-31.77h6.567c3.962 0 6.096 1.77 6.096 5.313 0 3.55-1.72 5.317-7.346 5.317h-5.317v-10.63zm54.38 3.23c-1.767-5.516-6.146-9.575-13.637-9.575-12.042 0-15.683 10.308-15.683 19.896 0 10.62 4.738 18.742 14.95 18.742 3.954 0 6.77-1.042 9.788-4.37v3.85h5.208v-19.004h-14.062v6.03h7.137c-.154 4.333-3.175 7.458-7.863 7.458-5.008 0-7.975-5.008-7.975-12.917 0-8.333 2.608-13.646 7.92-13.646 3.75 0 5.833 1.562 7.55 5.312l6.667-1.775m-288.438-39c0 6.096-2.396 8.23-7.242 8.23s-7.242-2.133-7.242-8.23v-23.854h-7.183v23.542c0 10.988 6.767 14.58 14.425 14.58s14.425-3.592 14.425-14.58v-23.542h-7.183v23.854zm22.546 13.746v-26.767h.104l15.37 26.767h6.92v-37.6h-6.762v25.62h-.104l-14.8-25.62h-7.492v37.6h6.762zm31.67 0h7.188v-37.6h-7.187v37.6zm22.758 0h8.02l9.946-37.6h-7.083l-6.975 27.704h-.104l-6.667-27.704h-7.083l9.946 37.6zm48.333 0v-6.038h-18.283v-10.525h12.863v-6.038h-12.863v-8.962h17.708v-6.037h-24.892v37.6h25.467zm13.225 0v-15.313h6.204l7.083 15.313h7.963l-8.27-16.77c4.575-1.3 6.917-5.05 6.867-9.688-.054-6.2-3.488-11.142-12.03-11.142h-14.996v37.6h7.18zm0-31.77h6.567c3.958 0 6.096 1.77 6.096 5.313s-1.717 5.317-7.346 5.317h-5.317v-10.63zm51.88 2.133c-2.242-5.467-7.238-8.483-13.283-8.483-6.508 0-12.13 3.8-12.13 10.517 0 11.563 19.375 10.104 19.375 17.504 0 3.646-2.762 5-6.358 5-4.22 0-6.462-2.346-8.18-5.888l-5.933 2.604c2.133 5.467 7.913 8.904 14.058 8.904 8.338 0 13.175-3.85 13.175-11.558 0-12.192-19.375-10.838-19.375-17.296 0-2.917 2.242-4.167 5.367-4.167 3.392 0 5.633 1.98 6.725 4.896l6.56-2.033zm8.5 29.638h7.183v-37.6h-7.183v37.6zm13.333-37.6v6.037h9.842v31.563h7.183v-31.563h9.842v-6.037h-26.867zm41.092 7.233h.104l4.217 16.308h-8.746l4.425-16.308zm-15.363 30.367h7.142l2.233-8.125h11.87l2.08 8.125h7.13l-10.67-37.6h-8.962l-10.83 37.6zm7.188-40.208h6.242v-6.038h-6.242v6.038zm9.896 0h6.242v-6.038h-6.242v6.038zm12.242 2.608v6.037h9.846v31.563h7.18v-31.563h9.846v-6.037h-26.87m-577.556-55.178h2.263v-2.275h2.287v-2.262h-2.287v-2.275h-2.263v2.275h-2.27v2.262h2.27v2.275zm40.154 132.067h2.262v-1.812h1.813v-2.263h-1.812v-1.817h-2.262v1.817h-1.825v2.263h1.825v1.813zm-48.788-132.062h2.263v-2.275h2.27v-2.267h-2.27v-2.275h-2.263v2.275h-2.28v2.267h2.28v2.275zm50.78 199.746c2.517 16.48 3.07 31.967 4.908 39.975l2.204-.504c-1.758-7.567-2.35-23.208-4.883-39.812l-2.23.342zm-22.808-90.27c-2.27-1.025-4.754.496-5.633 1.76l.767.762s1.138-1.75 3.17-1.75c2.012 0 3.492 1.954 3.492 3.296v2.67h1.092v-2.817c0-.746-.62-2.888-2.888-3.92zm6.858 0c-2.27 1.033-2.896 3.175-2.896 3.92v2.817h1.096v-2.67c0-1.342 1.483-3.296 3.492-3.296 2.037 0 3.175 1.75 3.175 1.75l.767-.762c-.88-1.262-3.362-2.783-5.633-1.76zm1.838 2.442c-1.933 0-2.742.77-2.742 1.496.537 0 1.367.025 2.27.038-.292.133-.504.392-.504.7 0 .433.408.792.904.792.504 0 .913-.358.913-.792 0-.3-.196-.542-.483-.683l2.208.033c0-.788-1.167-1.583-2.567-1.583zm17.637 80.204zm26.838-151.25l-2.187-3.504-2.196 3.504 2.196 3.508 2.188-3.508zm-2.287 80.075c3.037 0 5.512-2.462 5.512-5.508s-2.475-5.508-5.512-5.508c-3.05 0-5.517 2.467-5.517 5.508a5.51 5.51 0 0 0 5.517 5.508zm0-9.867c2.404.008 4.354 1.95 4.354 4.358a4.36 4.36 0 0 1-4.354 4.354c-2.417 0-4.358-1.954-4.367-4.354a4.37 4.37 0 0 1 4.367-4.358zm-1.088 7.27h2.263v-1.804h1.804v-2.262h-1.804v-1.812h-2.263v1.812h-1.817v2.262h1.817v1.804zm-39.625-118.35h2.262v-2.28h2.287v-2.262h-2.287v-2.275h-2.262v2.275h-2.27v2.262h2.27v2.28zm-7.904-.004h2.262v-2.27h2.27v-2.267h-2.27v-2.275h-2.262v2.275h-2.275v2.267h2.275v2.27zm-8.07 0h2.262v-2.27h2.28v-2.267h-2.28v-2.275h-2.262v2.275h-2.27v2.267h2.27v2.27zm4.346 111.783c-1.93 0-2.742.762-2.742 1.496a92.06 92.06 0 0 1 2.308.037c-.3.133-.513.392-.513.708 0 .433.408.792.904.792.504 0 .913-.358.913-.792 0-.308-.204-.562-.488-.692l2.18.025c0-.78-1.154-1.575-2.563-1.575zm20.904 81.338c-.03-.863-.104-1.5-.333-2.07-.17-.542-.838-1.217-1.608-1.188-1.092.092-1.53.662-2.15 1.183-.588.55-1.18 1.204-1.775 1.762-2.162 2.037-4.875 3.046-7.55 3.046a10.49 10.49 0 0 1-6.504-2.246c-1.47-1.22-2.537-2.042-3.912-2.1-.912-.05-1.783.667-2.067 1.442-.325.78-.417 1.675-.425 2.82v.254c.033.708.417 3.058 1.042 6.633.938 5.304 2.417 12.988 4.02 19.846.796 3.438 1.63 6.658 2.433 9.304.82 2.654 1.57 4.662 2.425 5.892 1.092 1.554 2.612 2.45 4.192 2.45h.008c2.246 0 4.167-1.767 4.85-4.438.52-2.067 3.4-14.792 5.396-26.22.017-.046.025-.096.033-.146.592-3.408 1.104-6.687 1.454-9.537 0-.008 0-.016.008-.025h-.008c.296-2.417.47-4.525.48-6.113l-.008-.55zm-9.546 42.025c-.55 1.992-1.675 2.74-2.658 2.74-.708 0-1.562-.383-2.354-1.5-.187-.25-.396-.633-.625-1.138 2.563-2.304 5.362-6.975 7.88-11.938l.642-1.33-2.883 13.163zm.213-12.85c-2.162 4.367-4.758 8.566-6.738 10.667-.446-1.3-.93-2.854-1.392-4.575l-.025-.112c6.283-5.746 10.287-12.038 12.883-17.454-.846 2.92-2.637 7.325-4.73 11.475zm6.65-22.983c-1.554 5.25-5.113 16.575-15.463 26.467-1.375-5.454-2.742-11.988-3.808-17.563-1.1-5.675-1.887-10.5-2.067-11.875 1.4 4.788 4.62 10.042 7.863 12.9l1.48-1.7c-1.283-1.1-2.646-2.792-3.858-4.713 1.167.325 2.4.47 3.638.47 3.942-.033 7.967-1.325 10.125-3.417l-1.596-1.596c-1.383 1.425-5.142 2.783-8.53 2.75-2.287.008-4.346-.58-5.575-1.75-.73-1.562-1.308-3.133-1.65-4.575.246.187.496.4.775.646l.03.033a12.75 12.75 0 0 0 7.904 2.725c3.254.008 6.517-1.237 9.104-3.662.67-.633 1.28-1.304 1.775-1.767l.23-.213c.025.196.042.433.05.708l.004.488c0 1.442-.154 3.38-.43 5.642zm-30.533-7.258c-1.88 11.57-3.9 29.612-12.208 44.708l1.98 1.092c8.583-15.617 10.58-33.958 12.458-45.434l-2.23-.367zm2.375 23.867c-.358 9.475-1.554 19.02-5.287 23.242l1.717 1.483c4.458-5.283 5.396-15.033 5.825-24.633.375-9.554.154-19.083 1.45-23l-2.15-.7c-1.496 4.746-1.146 14.07-1.554 23.6zm10.067-252.98l-2.196-3.5-2.2 3.5 2.2 3.513 2.196-3.513zm58.3-36.87l-4.97-1.47-1.63 5.504-5.5-1.63-1.47 4.97 5.5 1.63-1.63 5.508 4.975 1.47 1.625-5.508 5.504 1.634 1.47-4.97-5.5-1.633 1.625-5.504zm33.4 150.696l-2.187-3.508-2.192 3.508 2.192 3.5 2.188-3.5zm98.87 3.72l.183 1.446-12.767 1.667c-.82.104-1.196-.488-1.196-.488l-.154.025c-.562 1.754-1.304 3.692-2.2 5.242l3.892 2.88.43-.58c-1.38-.892-.983-1.575-.096-3.562l12.558-1.63.366 2.858 1.813.57-.47-3.654 5.37-.708-.046-.38c-2.854-.608-5.275-1.987-6.98-3.783l-.704.096zm2.538-35.304l-4.575-1.72s-.983.592-1.308.713c1.112 1 4.158 2.766 4.158 2.766.617-.33 1.725-1.758 1.725-1.758zm-123.113 125.5l.017 2.058 5.133-3.38 2.15 2.713-6.004 4.575 1.063 1.583 6.162-4.708 1.442 1.667-2.354 2.025 1.27 1.27 3.938-3.117-1.837-2.158 3.408-3.108-1.504-4.613 1.1-.75v-1.204h-3.158l1.75 5.866-1.15.904-2.108-2.62v-5.646l-4.808-.008v1.658l1.058 1.204-1.058.8-3.108-3.608h-1.504v.954l4.067 4.775-3.963 2.867zm-.725-94.02l2.2 3.504 2.188-3.504-2.188-3.508-2.2 3.508zm123.225 18.146l-13.15.64c-1.067.05-1.204-.562-1.204-.562l-.17.008-2.312 3.458 2.783 2.492.154-.008c-.037-.912.67-1.817.67-1.817l13.392-.65c.725-.033 1.038.47 1.038.47l.183-.016 2.488-3.35s-1.025-.625-2.78-2.612h-.154s.146 1.896-.937 1.946zm-20.988-36.98l-.162.05c-.3 1.812-.77 3.833-1.43 5.492l4.246 2.3.358-.646c-1.504-.68-1.204-1.408-.604-3.5l12.2-3.383.775 2.78 1.88.304-.992-3.542 5.217-1.454-.108-.37c-2.896-.213-5.492-1.23-7.43-2.766l-.692.196.392 1.408-12.412 3.438c-.788.217-1.238-.304-1.238-.304zm4.933 23.163l.154-.017c-.154-.792.025-1.92.3-1.98l13.517-2.708c.808-.17 1.212.392 1.212.392l.167-.038s.24-4.433.542-4.896c-2.408-.942-2.987-5.704-6.287-5.046l-10.817 2.167c-.708.137-1.092-.312-1.092-.312l-.187.033-1.812 4.354 2.863 2.304-1.692 3.57s1.238.617 3.133 2.175zm-.512-8.63l13.32-2.667c-.146.442-.454 2.13-.392 3.254l-12.483 2.496-1.262-1.062.817-2.02zm9.48 42.754c.725.017.996.546.996.546l.2.008 1.833-3.733 5.125 3.6c.367-.892 2.275-3.48 3.217-4.292-1.233-1.85-2.583-6.187-2.583-6.187l-5.587-.13c-.82-.016-1.092-.65-1.092-.65h-.163l-2.375 4.175-6.43-4.438c-.017.758-1.92 4.234-2.533 4.82.52.538 2.892 4.967 3.142 6.142l6.26.138zm3.133-6.6l6.042.15.142.275s-2.604 2.758-3.333 4.204l-4.012-2.925 1.163-1.704zm-10.45 2.467c.854-.983 2.354-3.784 2.613-4.433l5.146 3.492-.808 1.57-6.67-.163-.28-.466zm-52.863-30.8l2.188-3.504-2.188-3.508-2.196 3.508 2.196 3.504zm-149.05 221.342c-.008.7.692 2.362.692 2.362l3.73-3.167s-.033-1.162.008-1.487c-1.417.496-4.43 2.292-4.43 2.292zm128.808-224.846l2.192 3.504 2.188-3.504-2.187-3.508-2.192 3.508zm-131.254 216.18l2.47-12.92c.204-1.05.83-1.042.83-1.042l.033-.18-2.812-3.054-3.07 2.125-.042.154c.896.162 1.62 1.067 1.62 1.067l-2.53 13.175c-.133.708-.692.896-.692.896l-.042.18 2.675 3.204s.858-.846 3.2-2.083l.025-.146s-1.863-.3-1.667-1.375zm23.713 3.183l1.058-12.842c.063-.812.725-1.058.725-1.058l.008-.162-4.533-3.575-6.375 3.483-1.154 13.9c-.067.733-.617.97-.617.97v.187c3.492 2.758 6.354 5.238 9.862 8.404 0 0 .846-1.12 2.963-2.62l.008-.154c-.962-.08-5.975-4.58-5.975-4.58l4.03-1.954zm-6.683-.325l1.238-14.958.108-.075 2.838 2.1-1.18 14.25-.846.454-2.158-1.78zm-11.637-16.504l-.013.146c.9.13 1.65 1.008 1.65 1.008l-1.92 13.275c-.113.717-.667.925-.667.925l-.017.18 2.808 3.07s.804-.87 3.1-2.208l.008-.154s-1.87-.212-1.708-1.3l1.88-13.013c.162-1.067.78-1.083.78-1.083l.025-.17-2.946-2.938-2.98 2.262zm33.946 3.383c-.008-.725.504-1.016.504-1.016v-.188l-4.5-2.596s-3.433 2.712-6.25 4.283l.12 13.05c.008.825-.608 1.125-.608 1.125v.154l2.854 2.27 2.508-2.508v-.12l-1.17-.846-.15-14.683.53-.325 2.604 1.596.125 13.012c.017 1.067-.604 1.18-.604 1.18v.18l3.363 2.45 2.596-2.7v-.146c-.904.008-1.783-.74-1.783-.74l-.137-13.43zm61.188-13.712l-.642-.42-.925 1.4c-.954 1.266-3.396 3.963-7.017 3.963l-9.896-.146c.367 1.592.43 3.654-.325 5.263l4.825-.037-.804 1.213v-.067s-2.738 4.67-8.333 4.67l-5.52.042s.425.675.425 2.237c0 1.93-.837 2.408-.837 2.408l4.58.017c1.033 0 2.013-.3 2.925-.78-1.458 2.087-2.696 4.5-2.696 6.637l-.025 2.296c1.392-.742 4.592-.496 5.68-.496l-.004-4.583c0-4.15 1.08-6.737 1.725-7.917l3.825-5.72c2.758-.162 5.208-.64 7.054-1.996l.008 9.7-.008-.008s-1.863 1.938-4.062 1.938h-4.963c.283 1.262.22 3.054 0 4.32 2.196 0 3.758-.12 5.175-.958-.437 1.458-.375 2.862-.375 4.183.904-.367 3.596-.333 4.275 0v-5.833c0-1.67.217-2.558.396-3.004l5.438-.017c0-.417 0-.613-.025-.912-1.088 0-1.488-.88-1.633-3.238-.067-.992-.083-3.73-.092-4.38-.05-2.904-.112-6.82 1.57-9.358l.283-.417zm-34.683 18.433l-.017-.154-4.5-1.675 3.354-7.058c-.767.092-4.492-1.213-5.158-1.725-.467.604-4.454 3.646-5.567 4.087l.854 6.2c.104.708-.367 1.067-.367 1.067l.025.188 3.97 1.23-2.733 5.62c.933.22 3.8 1.688 4.733 2.492 1.63-1.52 5.708-3.55 5.708-3.55l-.767-5.533c-.113-.804.462-1.187.462-1.187zm-7.608-1.262l-.912-6.6.4-.34c1.125.683 4.117 1.712 4.817 1.875l-2.638 5.63-1.667-.554zm4.167 9.142s-3.142-2.125-4.68-2.62l2.254-4.437 1.854.88.838 5.983-.267.196zm-12.15-.163l-.742-12.867c-.054-.82.554-1.14.554-1.14v-.163c-1.717-.692-3.588-1.562-5.08-2.562l-3.142 3.67.537.488c1.004-1.333 1.663-.887 3.575.137l.733 12.646-2.9.167-.692 1.762 3.696-.2.3 5.392.4-.02c.796-2.792 2.358-5.12 4.262-6.683l-.046-.716-1.458.092zm84.025-344.83l1.246-1.875-1.92-1.275-1.246 1.87-1.87-1.246-1.28 1.917 1.88 1.25-1.25 1.875 1.92 1.275 1.24-1.87 1.875 1.246 1.275-1.917-1.87-1.25zm62.575 104.93c-.32-.85.07-1.933.07-1.933l12.542-4.76c.667-.258 1.13.13 1.13.13l.175-.062 1.317-3.954s-1.163-.283-3.433-1.642l-.146.058s.72 1.758-.312 2.146l-12.288 4.658c-1.008.38-1.325-.158-1.325-.158l-.17.062-1.125 4.004 3.408 1.5.158-.05zM2137.3 1760c.767-1.42.658-2.367.658-4.254-1.18.48-4.704.446-5.583 0v5.42c0 2.954-.538 4.23-.742 4.612-1.567.17-4.204-.07-4.867-.07l.204 10.025c.05 3.842-1.18 5.85-1.504 6.308-2.475-.016-5.267-.042-6.32 0-2.567.08-4.704.47-6.683 1.908 1.23-2.35 2.23-5.14 2.23-8.13l-.017-6.2c.88-.65 2.388-1.563 4.012-1.563h4.688c-.325-1.467-.25-3.554 0-5.037-1.758 0-2.963.067-3.97.425.758-1.425.658-2.38.658-4.258-1.18.48-4.704.442-5.592 0v5.42c0 3.646-.82 4.746-.82 4.746v.013l-.104.142c-.97 1.112-2.27 1.292-3.808 1.292v8.596c0 1.725.342 6.258-.792 8.633l-2.887 4.362.683.4s2.896-5.804 8.804-5.804l13.12-.05c-.392-1.75-.304-3.467.496-4.883a350.8 350.8 0 0 1-2.57-.017 27.13 27.13 0 0 0 2.725-2.929h.008s2.254-2.23 4.8-2.23h4.688c-.325-1.462-.26-3.546 0-5.037-3.483 0-4.792.27-6.73 2.533.292-.854.47-1.725.47-2.596l.033-5.6c.87-.658 2.375-1.562 4.012-1.562h4.67c-.317-1.475-.25-3.567.008-5.046-1.758 0-2.962.067-3.98.42zm-12.817-168.1l11.317-6.146.792.208c-.104.858-2.196 4.146-2.196 4.146l.087.163c2.238.133 3.688.688 3.688.688l.17-.092 1.97-4.396-3.454-1.12.833-3.704s-1.37-.225-3.63-1.15l-.142.075c.375.7.546 1.838.288 1.98l-11.63 6.32c-.725.383-1.28-.017-1.28-.017l-.137.075c.104 1.837.104 3.912-.154 5.68l4.662 1.28.196-.7c-1.612-.32-1.5-1.108-1.383-3.288zm34.07 103.567c.72-1.317.625-2.163.625-3.88-1.062.43-4.22.396-5.017 0v4.86c0 2.733-.512 3.862-.683 4.175-1.025.64-2.883 1.52-5.446 1.52a12.82 12.82 0 0 0 .025.871c1.146 0 1.658 1.862 1.658 2.992 0 .554.067 1.03.067 1.67-.008 2.62-.033 7.567-1.092 9.254l-1.48 2.35-7.113 10.75c-.025.025-.042.05-.067.075l-3.892 5.883h.012l-.092.138v-13.754l1.854-2.808c.45-.404 2.246-1.92 4.258-1.92h3.238c-.3-1.333-.237-3.23.008-4.58-1.025 0-1.767.033-2.342.138.788-1.45.692-2.375.692-4.263-1.167.47-4.633.43-5.504 0v5.32c0 2.808-.488 4.075-.708 4.5l-1.746 2.646c-.546.616-2.133 1.854-6.154 1.854a24.2 24.2 0 0 0 .017.88c1.154 0 1.667 1.854 1.667 2.987l.067 13.192c0 2.62-.033 7.567-1.1 9.254-.504.804-1.562 2.3-1.562 2.3l.604.383s1.333-1.804 2.92-4.192c.154-.225.3-.462.454-.7l.008.008s3.233-4.9 8.813-4.9h4.72c-.325-1.463.725-3.22 1.67-4.142-5.617 0-9.092-.667-12.38 3.492l-.325.496c.504-1.48.83-3.067.83-4.75v-.008l.93-1.4c.762-1.033 4.27-5.317 9.837-5.317h5.338c-.367-1.642.8-3.596 1.85-4.646.762-.575 2.092-1.383 3.53-1.383h4.096c-.283-1.283-.22-3.117 0-4.408-1.538 0-2.592.054-3.483.37.67-1.25.587-2.075.587-3.725-1.046.42-4.13.383-4.896 0v4.746c0 3.188-.712 4.15-.712 4.15v.025l-.137.17c-4.388-.042-7.588-.287-10.413 1.567l5.3-7.996.3-.458 2.192-3.304c.104-.163.208-.317.317-.48a3.17 3.17 0 0 1 .096-.154l.367-.554c.13-.13 2.213-2.213 4.654-2.213h5.146c-.317-1.44-.25-3.5 0-4.958-3.762 0-5.437.317-7.75 3.208.708-1.792 1.196-3.767 1.196-5.875l-.008-3.85c.954-.596 2.704-1.483 4.654-1.483h3.104c-.292-1.317-.225-3.188 0-4.525-1.6 0-2.692.067-3.6.4zm-40.296-115.234l3.87-2.487c2.808.55 4.796 1.154 7.642 2.208l.163-.1 3.108-6.025a33.05 33.05 0 0 1-5.767-3.633l-11.142 7.146c-.675.437-1.27.08-1.27.08l-.13.083c.342 1.813.454 4.675.383 6.98l4.792.954.1-.73c-1.637-.2-1.542-1.617-1.75-4.475zm11.433-7.346l-2.58 5.242s-2.312-.608-4.03-.992l6.608-4.25zm7.67 34.304c.663-.28 1.142.08 1.142.08l.17-.08.096-4.15 6.163 1.104c-.042-.97.583-4.12 1.1-5.258-1.9-1.146-4.95-4.517-4.95-4.517l-5.117 2.25c-.75.325-1.27-.133-1.27-.133l-.154.067-.392 4.78-7.7-1.3c.313.692.05 4.65-.258 5.433.708.27 4.712 3.296 5.442 4.242l5.73-2.517zm.05-7.3l5.542-2.43.246.192s-1.187 3.6-1.254 5.22l-4.867-.963.333-2.02zm-7.975 6.942l-.454-.313c.367-1.24.538-4.417.513-5.133l6.12 1.016-.075 1.75-6.104 2.68zm-18.083 97.984h-2.262v1.817h-1.82v2.262h1.82v1.804h2.262v-1.804h1.817v-2.262h-1.817v-1.817zm52.25-44.592s-1.125.263-1.458.28c.758 1.292 3.1 3.912 3.1 3.912.692-.125 2.183-1.142 2.183-1.142l-3.825-3.05zm-194.55-193.108c-114.15 0-206.683 92.53-206.688 206.688.004 114.15 92.538 206.68 206.688 206.68 114.142 0 206.692-92.53 206.692-206.68 0-114.16-92.55-206.688-206.692-206.688zm22.25 45.663c1.783.24 3.554.52 5.32.825v11.808l-5.32-8.167v-4.467zm7.137 310.042l-1.996 1.82v2.263h2.254v2.304h-2.254v2.254h-2.3v-2.254h-2.258v-2.304h2.258v-2.263h.013l-1.992-1.82h-6.883l-1.996 1.82h.008v2.263h2.262v2.304h-2.262v2.254H1981v-2.254h-2.254v-2.304H1981v-2.254l-2-1.83h-6.683l-2 1.83v2.254h2.246v2.304h-2.246v2.254h-2.312v-2.254h-2.254v-2.304h2.254v-2.263h.025l-1.996-1.82h-6.858l-2.004 1.83v2.254h2.254v2.304h-2.254v2.254h-2.3v-2.254h-2.254v-2.304h2.254v-2.263l-1.996-1.82h-6.833l-2.004 1.83v2.254h2.263v2.304h-2.263v2.254h-2.304v-2.254h-2.246v-2.304h2.246v-2.23l-2.025-1.854h-19.733c.78.78 6.875 6.175 9.992 8.925a161.99 161.99 0 0 1-16.062-4.858c-.008-.017-.017-.033-.033-.054l-.017-2.908 1.254-1.13 3.946-3.458h35.33c.917 1.008 2.033 1.788 3.358 1.975a5.49 5.49 0 0 0 .629.033c.713 0 1.513-.104 2.254-.258.746-.162 1.358-.312 1.912-.646.283-.18.942-.546 1.583-1.033l.083-.07h16.217a11.15 11.15 0 0 0 .929.788c1.554 1.15 3.175 1.546 4.55 1.546h.017c1.767-.008 3.117-.592 3.817-1 .246-.13.75-.563 1.075-1.334h28.1l5.063 4.433v3.133a20.43 20.43 0 0 1-1.117.454c-4.883 1.713-9.87 3.2-14.958 4.446l8.758-8.983h-18.213zm2.504 10.53a162.75 162.75 0 0 1-63.783 0h63.783zm-47.8-277.067l.008 9.975h-19.883v-9.975h19.875zm-11.792-2.263v-16.254c.004-.658.308-1.267.813-1.742.52-.483 1.237-.783 1.946-.775 1.408 0 2.538 1.133 2.538 2.554v16.217h-5.296zm7.558-16.217c0-.763.267-1.43.65-1.88s.846-.675 1.33-.68c.504-.004 1.067.254 1.512.72.438.47.725 1.12.725 1.837h.017v16.217h-4.225l-.008-16.217zm19.996 18.48v.004h12.442v9.97H1956.6v-9.975h12.304zm-12.304-2.263v-16.217h.017c0-1.512 1.104-2.554 2.083-2.558.48-.004 1.008.242 1.43.704s.7 1.12.7 1.854v16.217h-4.23zm6.492 0v-16.217c.008-1.45 1.108-2.554 2.417-2.558 1.28.004 2.404 1.113 2.404 2.558h.004v16.217h-4.825zm7.088 0v-16.217h.008c.008-1.47 1.092-2.554 2.346-2.558 1.23.004 2.312 1.084 2.32 2.558v16.217h-4.675zm-1.13 77.783v-.004h-.154v.004c-2.367.013-4.687.28-6.942.767l7.054-10.82 7.096 10.83c-2.292-.496-4.654-.767-7.054-.775zm5.804 2.838v12.12a25.78 25.78 0 0 0-4.713-.641v-12.025c1.596.062 3.17.246 4.713.546zm-6.975-.546v12.025c-1.842.087-3.63.358-5.346.808v-12.175a31.43 31.43 0 0 1 5.346-.658zm1.13-16.48l-10.333 15.842c-.7.23-1.383.483-2.058.754v-4.258l12.392-19.004 12.337 18.838v4.396a40.41 40.41 0 0 0-1.946-.704L1969 1617.62zm.008-17.237l12.33 18.692v6.583l-12.337-18.837-12.392 19-.008-6.42 12.408-19.017zm-12.408-17.1c.104-1.275 1.317-2.37 2.604-2.375 1.3.004 2.487 1.146 2.487 2.554v23.992l-5.092 7.804v-31.975zm11.308 3v8.9h-3.954v-11.712c.008-1.034.458-1.78 1.338-2.417.658-.462 1.57-.796 2.617-.933v2.463c-.625.383-1.038 1.066-1.038 1.858a2.16 2.16 0 0 0 1.038 1.842zm-.488 12.392l-3.467 5.32v-7.333c.87.77 2.15 1.596 3.467 2.013zm2.75-16.088v-2.442c.988.154 1.85.47 2.467.908.88.638 1.33 1.383 1.346 2.417h-.008v11.712h-3.804v-8.904a2.17 2.17 0 0 0 1.037-1.838 2.18 2.18 0 0 0-1.037-1.854zm3.804 14.08v7.15l-3.404-5.158c1.304-.425 2.55-1.233 3.404-1.992zm2.27 10.583v-23.775c0-1.396 1.213-2.554 2.53-2.558 1.287.004 2.475 1.104 2.562 2.417v31.642l-5.092-7.725zm.867 27.925c1.588.43 3.142.983 4.658 1.66v12.63c-1.475-.83-3.03-1.52-4.658-2.058v-12.23zm4.225-81.142h-4.225l-.004-16.217c0-.763.267-1.43.65-1.88s.846-.675 1.325-.68c.504-.004 1.075.25 1.52.717a2.65 2.65 0 0 1 .733 1.817v16.242zm0 14.5v10.88c-.746-.475-1.625-.75-2.562-.758-1.433.008-2.725.67-3.613 1.7a5.48 5.48 0 0 0-1.229-1.154c-1.058-.738-2.354-1.17-3.763-1.338v-1.26h2.037v-2.262h-2.037v-1.996h-2.262v1.996h-2.042v2.262h2.042v1.246c-1.463.154-2.813.588-3.913 1.35a5.69 5.69 0 0 0-1.22 1.146c-.87-1.025-2.15-1.683-3.57-1.692-.946.008-1.842.288-2.604.775l-.008-10.896h24.746zm-21.075 66.796v12.317a25.68 25.68 0 0 0-4.55 2.158v-12.733a31.15 31.15 0 0 1 4.55-1.742zm8.78 13.042c6.488 0 12.354 2.638 16.608 6.82s6.88 9.904 6.88 16.038c-.008 8.912-5.396 16.217-13.72 20.662l.146-1.475c.308-3.1 3.313-8.292 3.313-8.292s2.067.23 2.988-1.292c.942-1.57.112-3.03.112-3.03s2.213-.7 2.442-2.692c.325-2.75-2.212-3.4-2.212-3.4s1.283-1.346.53-3.287c-.888-2.27-3.483-1.875-3.483-1.875s.367-1.375-1.383-2.425c-1.808-1.087-2.72-.446-2.72-.446s-.375-.98-1.463-1.367-2.108-.163-2.108-.163-.538-.62-1.613-.812-1.92.275-1.92.275-1.18-1.07-2.342-1.07-2.354 1.07-2.354 1.07-.333-.504-1.633-.47c-1.312.038-1.887 1.008-1.887 1.008s-.938-.58-2.075-.092c-1.133.496-1.508 1.62-1.508 1.62s-.846-.75-2.733.404c-1.512.92-1.367 2.467-1.367 2.467s-1.63-.446-3.075 1.204c-1.433 1.646 0 3.77 0 3.77s-2.346.546-2.142 3.125c.212 2.58 2.496 3.154 2.496 3.154s-.446 1.63.342 2.98c.57.983 2.013 1.3 3.125 1.3.23.913 1.742 6.88 2.046 9.246.008.017.008.042.008.058l-2.58-1.75c-6.667-4.625-10.2-11.362-10.2-18.408-.008-6.133 2.613-11.85 6.87-16.038s10.13-6.82 16.617-6.82zm48.72-63.583v-2.037h-2.262v2.037h-2.042v2.263h2.042v6.604l-5.646 8.6V1558.6l13.25 20.042v23.146l-5.342-8.142v-6.608h2.038v-2.263h-2.038zm-1.13 11.267l6.47 9.87v5.72c-.792-.488-1.72-.775-2.696-.775-1.537.004-2.97.692-3.912 1.792-.92-1.1-2.33-1.792-3.858-1.792a5.14 5.14 0 0 0-2.783.825v-5.32l6.78-10.32zm6.47 19.36v52.88l-5.496-8.354v-44.246c.017-1.337 1.296-2.558 2.8-2.558 1.383 0 2.537 1.042 2.696 2.28zm-13.242.28c0-1.342 1.27-2.558 2.775-2.558 1.48 0 2.7 1.192 2.708 2.55v44.25l-5.492 8.383.008-52.625zm6.617 46.646l6.625 10.08v19.312c-.767-.496-1.68-.783-2.646-.792a5.28 5.28 0 0 0-3.987 1.858 5.45 5.45 0 0 0-4.037-1.858 5.17 5.17 0 0 0-2.58.708v-19.204l6.625-10.104zm1.13 138.888V1750.7h5.496v35.538l-5.292 9.408v5.746l-.204-.18zm.204 12.083v2.592h-1.537c.154-.15.292-.296.417-.458.463-.608.82-1.342 1.12-2.133zm-.204-67.78v-49.77c.008-.663.308-1.28.837-1.767a3.05 3.05 0 0 1 2.012-.792c1.442.01 2.596 1.158 2.596 2.567h.05v49.763h-5.496zm-5.175-52.32c.742-.01 1.504.304 2.05.8.554.488.862 1.113.862 1.76v49.77h-5.492v-50.42c.238-1.104 1.246-1.887 2.58-1.904zm2.912 57.504v48.55l-.725-.65c-1.88-1.717-3.742-3.687-4.596-5.475l-.075.033.067-.116a1.28 1.28 0 0 1-.162-.179V1750.7h5.492zm-2.246 49.57c1.68 1.53 3.338 2.87 4.217 3.734-.408 2.596-.7 5.387-1.28 7.47-.3 1.12-.692 2.017-1.12 2.546-.442.53-.783.717-1.392.733-.692-.017-1.083-.238-1.512-.725-1.37-1.47-1.637-5.833-1.588-8v-2.112l-.042.03.042-.096c-1.704-.725-3.942-1.304-6.204-3.575-2.238-2.27-4.533-6.312-5.713-14.133-.404-2.708-.854-8.692-1.52-14.696-.683-6.042-1.52-12.038-2.93-15.292l-2.07.908c1.183 2.654 2.104 8.692 2.746 14.633l1.537 14.787c1.22 8.113 3.67 12.688 6.35 15.38 2.008 2.046 4.133 2.97 5.654 3.567-.604.554-1.13 1.292-1.83 2.237-1.238 1.7-2.775 3.938-4.437 5.704-1.65 1.792-3.417 2.962-4.746 2.92-.746-.008-1.488-.275-2.4-1.196-3.588-3.704-7.43-5.592-11.117-5.6-2.683 0-5.217 1.033-7.317 2.946-1.17 1.05-2.442 1.67-3.767 1.67-1.308-.008-2.833-.58-4.62-2.32l-1.808-1.692c.262.238-1.52-1.537-3.042-2.083-1.32-.47-2.525-.596-3.267-.596-.958 0-2.246.092-4.133.825-2.075.804-4.204 2.254-7.038 4.646-2.025 1.7-3.792 2.27-5.308 2.28-2.283.008-4.238-1.383-5.433-2.98-1.108-1.483-1.946-2.4-2.85-2.996-.83-.546-1.717-.708-2.52-.725 3.833-9.57 9.804-27.93 11.58-35.108l3.067-12.408c.87-3.158 2.263-7.52 5.633-9.82 1.496-.52 3.058-.863 4.442-.85.808-.008 1.546.108 2.175.338 1.796.642 4.037 2.213 6.38 3.667 2.35 1.433 4.833 2.808 7.512 2.833 5.03-.017 10.23-2.988 11.742-3.596.454-.212.975-.513 1.554-.846.65-.28 1.296-.596 1.904-.954.108-.058.292-.17.546-.317.992-.438 2.058-.75 3.142-.742.608 0 1.213.092 1.83.317.52.162 1.287.904 1.996 2.117 2.154 3.638 3.742 10.8 4.37 14.404.854 4.883 2.117 12.704 3.75 18.825.458 1.66 1.33 3.708 2.22 5.413.45.854.904 1.6 1.337 2.196l.233.3c1.133 2.238 3.125 4.267 5.046 6.033zm-2.442 15.617h-7.958c.963-.913 1.854-1.962 2.696-2.996 1.088-1.375 2.067-2.767 2.87-3.884.083 1.083.238 2.246.52 3.346.3 1.146.742 2.246 1.496 3.14.117.138.237.267.375.392zm-18.23 0h-1.625a12.23 12.23 0 0 0-.742-1.908 19.32 19.32 0 0 1 2.367 1.908zm-5.8-3.283c1.78 2.63 2.212 4.3 2.204 5.138 0 .496-.112.74-.196.87-.042.07-.08.104-.096.13-.392.23-1.425.675-2.637.667-.963 0-2.05-.25-3.225-1.104-1.283-.946-2.35-2.362-3.058-3.533a17.92 17.92 0 0 1-.758-1.383c1.508-1.083 3.142-1.62 4.883-1.63.058 0 .125.008.18.008l1.58 4.42 2.133-.758-1.008-2.825zm-8.98 3.283h-2.496a9.11 9.11 0 0 0 1.904-1.05 26.73 26.73 0 0 0 .592 1.05zm-7.5 0h-4.183a68.55 68.55 0 0 0 .154-2.404c.008-.13.008-.25.017-.37.104.104.217.192.325.3 1.22 1.196 2.458 2 3.688 2.475zm-8.513.704l1.838-5.542.463.287-.08 2.033c-.058 1.383-.196 3.03-.292 3.33 0 .112-.337.554-.833.913-.48.366-1.033.675-1.412.916 0 .017-.58.238-1.167.342-.608.133-1.308.212-1.796.212a3.73 3.73 0 0 1-.358-.017c-.63-.046-1.68-.763-2.45-1.83-.22-.288-.4-.863-.392-1.62-.025-1.63.796-3.904 1.83-5.158.125-.146.23-.254.32-.325.462-.154.917-.28 1.342-.333l.146-.025a7.02 7.02 0 0 1 .821-.058c.4 0 .792.058 1.175.13l.633.204-1.93 5.83 2.142.713zm-8.733-.704h-4.43a15.24 15.24 0 0 0 1.742-1.27 37.16 37.16 0 0 1 3.354-2.562c-.42 1.162-.667 2.4-.675 3.563 0 .092.008.18.008.27zm-31.542-13.054c4.63-4.258 9.146-11.142 12.18-16.596 4.404-7.992 7.154-18.675 8.483-23.03 1.617-5.283 3.52-7.404 5.4-9.067-1.17 2.192-1.82 4.467-2.317 6.208-1.154 4.154-2.067 8.342-3.083 12.48-1.867 7.583-8.837 28.837-12.446 37.1-.717.958-1.088 2.008-1.625 2.88-.588.946-1.187 1.63-2.467 1.98-.18.05-.342.07-.488.07-.758.017-1.637-.608-2.425-2.7-.758-2.033-1.213-5.225-1.213-9.325zm.83 13.054h-2.058v-3.925a17.94 17.94 0 0 0 .317.98c.42 1.18 1 2.204 1.742 2.946zm5.892-65.188v40.2c-1.7 2.604-3.58 5.208-5.5 7.425V1750.7h5.5zm-5.5-5.183v-49.77c0-.663.3-1.28.83-1.767.537-.48 1.27-.792 2.008-.792 1.45 0 2.604 1.125 2.662 2.467v49.863h-5.5zm5.5-77.22l-5.508-8.375.008-44.242c0-1.392 1.17-2.558 2.658-2.558.742-.004 1.483.304 2.012.783.52.48.82 1.1.83 1.754v52.638zm21.942 21.408c2.342.008 4.238 1.875 4.33 4.2l-1.288.417.308 1.058a1.96 1.96 0 0 1 .1.592c-.017.708-.425.954-1.025 1-.5-.02-.937-.217-1.183-.933l-.113-.358v-.47h1.817v-2.262h-1.817v-1.817h-2.262v1.817h-1.82v2.262h1.82v.404l-2.504.838a4.27 4.27 0 0 1-.725-2.383 4.37 4.37 0 0 1 4.362-4.362zm-.22-1.137v-1.117a24.56 24.56 0 0 0 1.179 1.196 5.64 5.64 0 0 0-.958-.088c-.075 0-.15.008-.22.008zm5.933 7.404v-.138l1.13-.367 2.733 7.7-.967.35c-.658-.97-1.742-1.5-2.742-1.467-1.733.008-3.542 1.32-3.575 3.45 0 .016.008.033.008.05l-1.23.425-2.65-7.83 1.17-.383c.692.975 1.792 1.488 2.833 1.47a3.35 3.35 0 0 0 2.246-.846c.633-.558 1.05-1.437 1.042-2.417zm-.646-4.042l1.742 1.17-1.333.43c-.058-.558-.196-1.104-.408-1.6zm24.017-9.98l-1.18-.075s-.23.954-.858 1.97c-.554.896-.575.57-1.592 2.067 0 0-1.792-1.454-3.388-1.787v-1.917h-.967l-.042 2.062h-.567v-.483h-.75v.8c0 .846-1.367.942-1.367 0v-.863h-.733v.546h-.588v-2.075h-1.088v1.95s-2.092.604-3.03 1.533c-.58-.358-2.842-1.14-3.1-3.787-.775-.016-.675.017-.675.017s-1.133-2.98-1.75-6.638c.708-.625 2.588-2.375 2.504-3.254.646.488 1.125.78 2.054.78s2.238-.633 2.596-1.366c.708.392 3.125 1.32 4.492-.796.53.53 1.113 1.375 2.133 1.375s2.367-.58 2.367-.58.758 1.366 2.596 1.366 2.058-.78 2.058-.78l3.15 3.213c-.217.93-1.417 5.1-2.28 6.72zm3.183 13.72v1.742l-2.663-3.38c.92-.48 1.8-1 2.654-1.554-.154.504-.238 1.05-.238 1.612 0 .546.1 1.075.246 1.58zm-1.167 3.93c-.463.58-1.504 1.467-2.596 2.346-1.408 1.23-3.075 2.663-3.142 4.917a3.39 3.39 0 0 0 .067.675c.146.746.725 2.204 1.63 4.408 1.35 3.233 3.35 7.708 5.263 11.542.954 1.92 1.887 3.67 2.72 5.046.87 1.392 1.454 2.333 2.342 2.92.775.717 1.688 1.283 2.758 1.613 2.946.892 5.25 1.504 6.446 4.067l2.05-.95c-1.708-3.63-5.075-4.446-7.833-5.283-.1-.033-.196-.075-.296-.113-.008-.162-.017-.342-.017-.554-.008-2.28.646-6.3.97-8.067l-2.23-.396c-.287 1.587-.825 4.775-.963 7.317-.342-.425-.65-.912-.937-1.467-1.308-2.538-1.908-6.292-2.213-9.904-.317-3.63-.358-7.08-.733-9.325l-2.23.383c.392 2.254.392 6.654.904 11.058l-1.52-3.28a185.93 185.93 0 0 1-2.713-6.25c-.7-1.687-1.17-3.054-1.18-3.167a1.54 1.54 0 0 1-.025-.275c-.054-.85.93-2.038 2.338-3.183.846-.758 1.792-1.4 2.53-2.213 8.604 11.708 17.22 26.52 18.875 33.642a9.06 9.06 0 0 1 .146 1.625c.008 3.313-1.912 5.72-3.963 7.392-.662.538-1.33.975-1.92 1.334a13.92 13.92 0 0 0 .033-.871c-.008-1.454-.238-3.32-1.417-4.875-.52-.658-1.158-1.204-1.825-1.658-1.292-1.042-3.008-1.817-5.158-2.108-.017 0-.033-.008-.033-.008l-.454-.088-.042.02-.092-.008-.225.067c-.033.017-.058.017-.1.017-.12.025-.592-.154-1.196-.83-2.154-2.354-4.858-9.254-7.004-16.23-2.004-6.413-3.662-12.98-4.508-16.558.813-.375 1.583-.716 2.308-1.175.963-.6 1.825-1.537 2.175-2.863.188-.625.275-1.375.333-2.125a125.16 125.16 0 0 1 2.675 3.433zm6.42-9.87a4.36 4.36 0 0 1 4.354 4.362c0 2.4-1.95 4.346-4.354 4.354a4.36 4.36 0 0 1-4.35-4.354c0-2.408 1.942-4.362 4.35-4.362zm-.37-1.13c.233-.238.496-.458.72-.7v.692c-.112 0-.233-.016-.35-.016-.13 0-.25.016-.37.025zm6.858-42.388v19.08a24.89 24.89 0 0 0-3.875-8.296v-14.758c1.37 1.2 2.662 2.525 3.875 3.975zm-3.72-6.796l3.72-5.796v9.213c-1.18-1.233-2.417-2.375-3.72-3.417zm3.72 56.604v18.604a195.69 195.69 0 0 0-3.93-6.208h.054v-9.483c1.725-.925 2.9-2.75 2.9-4.842 0-2.1-1.175-3.92-2.9-4.858v-4.02c1.783-2.442 3.108-5.15 3.875-8.096v15.038a5.43 5.43 0 0 0-.358 1.929c0 .683.13 1.333.358 1.938zm-6.138 3.554v5.567a204.32 204.32 0 0 0-3.35-4.725v-1.717a5.43 5.43 0 0 0 3 .892 4.75 4.75 0 0 0 .35-.017zm11.542 45.942c2.188-1.896 4.362-4.8 4.362-8.783 0-.65-.058-1.333-.18-2.033l-.008-.033-.008-.025c-.408-1.708-1.146-3.767-2.142-6.046v-29.5a5.52 5.52 0 0 0 3.208-4.704v51.125h-5.233zm5.233 5.183v27.15c-.775-3.933-1.425-7.838-1.937-10.738-.433-2.487-1.27-6.525-2.492-10.18-.608-1.83-1.317-3.554-2.154-4.98-.27-.45-.554-.87-.846-1.254h7.43zm-8.375-105.28v-11.87l8.375 12.746v15.68c-1.842-6.42-4.713-11.996-8.375-16.554zm8.375 33.004v15.358c-.125-2.1-1.392-3.875-3.208-4.704v-29.65c1.996 5.57 3.142 11.942 3.208 18.996zm-5.47-24.304l-.017 34.454c-1.058 0-2.042.308-2.888.83v-40.208c1.058 1.533 2.025 3.183 2.904 4.925zm-2.904-24.692v-7.825l8.375 12.742v7.83l-8.375-12.746zm0-11.954v-13.608h.008l-.008-.38c.008-2.183 1.825-3.988 4.092-3.988 2.32.008 4.275 1.854 4.275 3.988h.008v26.737l-8.375-12.75zm4.092-20.238c-2.213.004-4.17 1.125-5.312 2.833a6.81 6.81 0 0 0-5.542-2.833 7.3 7.3 0 0 0-4.646 1.708l10.433-15.88 9.35 14.242v1.488c-1.162-.97-2.67-1.554-4.283-1.558zm-1.204 92.492c2.404 0 4.346 1.954 4.354 4.354a4.37 4.37 0 0 1-4.354 4.362c-2.408 0-4.354-1.954-4.354-4.362a4.35 4.35 0 0 1 4.354-4.354zm.017 9.863v24.237c-.88-1.717-1.854-3.517-2.904-5.354v-19.704c.838.52 1.83.82 2.888.82h.017zm-11.562 46.72l-7.933 4.796.02.037c-.225-.087-.446-.208-.65-.342l8.1-5.225-1.22-1.904-8.392 5.413c-.138-.35-.213-.73-.238-1.137l8.317-4.98-1.162-1.946-6.242 3.742c.538-.913 1.246-1.675 1.93-2.058.617-.358.692-.367 7.063-4.45.075.017.146.037.23.054.88.23 2.467.8 3.704 1.604 1.6 1.358 2.213 3.242 2.246 4.9a4.94 4.94 0 0 1-.204 1.479l-5.03 3.07c-.946.404-1.775.88-2.45 1.275a11.65 11.65 0 0 1-1.92.63l5.004-3.02-1.17-1.937zm-19.58 2.05l-.667-.08c-2.792-.35-5.225-2.554-5.217-5.6a5.73 5.73 0 0 1 .063-.829c.4-2.817 2.704-5.142 6.03-5.15.408 0 .842.038 1.296.113l.7.12.417-.583c1.25-1.75 2.692-2.287 4.27-2.304 1.204-.008 2.467.367 3.563.93 2.33 1.12 2.688 3.684 2.73 4.4l-.808.513c0-.042.008-.07.008-.12.017-1.22-.537-2.67-1.933-3.758-.904-.725-1.98-1.058-3.004-1.058-2.067.008-4.08 1.267-4.85 3.23-.733-.43-1.546-.64-2.338-.633-2.375.017-4.696 1.684-5.1 4.263a5.76 5.76 0 0 0-.058.837c-.008 1.425.563 2.67 1.462 3.492.904.83 2.092 1.254 3.33 1.254.325 0 .667-.025 1.004-.092.096 2.646 2.342 4.95 5.158 5.008a4.69 4.69 0 0 0 1.887-.4c.196-.088.367-.196.546-.3.283.3.583.567.904.804-.417.23-1.033.47-1.963.65a8.6 8.6 0 0 1-1.604.154c-2.604-.038-4.338-1.25-5.583-4.237l-.242-.63zm.046 4.6l-1-.604-3.187-2.008 2.342.025a5.86 5.86 0 0 0 .188.05 9.65 9.65 0 0 0 1.658 2.537zm-29.45-63.25c2.4.008 4.346 1.954 4.354 4.362-.008 2.4-1.954 4.337-4.354 4.346a4.35 4.35 0 0 1-4.354-4.346 4.37 4.37 0 0 1 4.354-4.362zm-.17-1.146V1654.8a43.13 43.13 0 0 1 3.15-5.446v40.1a5.4 5.4 0 0 0-2.979-.887c-.058 0-.112.008-.17.008zm3.15 10.125v22.5l-1.733 3.22-1.417 2.77v-27.62c.058.008.112.008.17.008 1.1 0 2.125-.33 2.98-.88zm-4.467 37.708l.02-.096.017-.1c.108-1.283 1.98-5.638 4.696-10.742 2.363-4.475 5.363-9.7 8.458-14.63l2.612 7.696 5.183-1.82-.246-1a1.59 1.59 0 0 1-.067-.45c0-.77.604-1.212 1.263-1.23.475.033.83.162 1.108.912l.35 1.092.033-.008c-1.33 3.758-3.45 8.975-4.533 11.88-.342-.07-.692-.13-1.042-.12-2.133.058-3.988 1.287-5.642 3.083.758-4.875 1.817-9.725 2.542-11.587l-2.108-.804c-1.425 3.783-3.596 15.542-3.613 21.858.008 1.36.08 2.45.396 3.342.588 1.733 1.98 3.242 3.98 3.242h.058c1.742-.042 3.613-.913 5.942-2.75-1.358 2.62-3.746 4.533-7.017 5.62-.367.125-.77.18-1.204.18-2.138.033-5.133-1.625-7.446-4.067-2.333-2.417-3.98-5.558-3.954-8.017 0-.53.063-1.016.212-1.483zm17.42-30.9c0-.675.62-1.17 1.304-1.187.48.05.804.146 1.067.93.037.162.063.317.063.446 0 .725-.625 1.204-1.275 1.22-.467-.038-.8-.146-1.083-.933v-.008c-.058-.18-.075-.325-.075-.466zm1.075 3.67h.083c1.742 0 3.52-1.358 3.538-3.483l1.075-.388 2.68 7.533-1.167.383c-.675-.963-1.75-1.483-2.767-1.458-1.725.008-3.492 1.337-3.52 3.45l-1.208.433-2.546-7.52 1.17-.413c.646.942 1.68 1.463 2.662 1.463zm13.608-11.35h.242a12.72 12.72 0 0 0 .829-.042h.025c3.942-.375 5.504-2.783 5.975-3.746-.13 1.408-.17 3.037-.383 3.566l-.017.042-.008.03c-.217.775-.546 1.125-1.213 1.58-.667.433-1.683.842-2.896 1.433l-.804.392.2.88.92 3.808c-.812.708-1.896 1.058-2.775 1.05-.058 0-.08.008-.087.008-1.075-.033-2.133.08-3.396-.887.458-1.504.82-2.825 1.075-3.758l.267-.988-.95-.367c-2.7-.992-4.192-3.204-4.475-4.246-.067-.47-.204-1.167-.35-1.867-.075-.846-.042-1.53-.042-1.53s2.092 4.617 7.863 4.642zm-2.833-9.254h5.33c0 .692-1.196 2.17-2.658 2.17-1.483 0-2.67-1.48-2.67-2.17zm8.7 36.108a258.13 258.13 0 0 1-3.02-16.212 6.48 6.48 0 0 0 .629-.333c.908 3.542 2.1 7.846 3.433 12.063 1.488 5.963 1.75 10.058 1.767 12.117a12.29 12.29 0 0 0-1.221-.325l.113-.033s-.725-2.8-1.7-7.275zm-2.888-2.725c-.312-.554-.63-1.067-.962-1.517-.633-.78-1.246-1.52-2.442-1.588-.17 0-.342.017-.52.075.008 0-.154.05-.408.113.287-2.042.858-6.533.97-9.95h.154c.083 0 .146-.008.213 0h.112c.18 0 .367-.017.554-.033a245.57 245.57 0 0 0 2.33 12.9zm-7.717-11.704l.658-2.042c.487.283.98.47 1.442.6-.05 1.825-.263 4.063-.48 6.05l-1.62-4.608zm.938 9.487l-.954.288c-.025.008-.05.025-.067.033l-1.625-4.77.325-.104.642-.212 1.68 4.767zm-.954-17.212a121.45 121.45 0 0 1-1.229 4.179l-1.017-2.908-.042.01-1.683-4.73c.82 1.246 2.125 2.533 3.97 3.45zm-2 18.883c-.708.804-1.213 1.796-1.725 2.692-.646 1.246-1.32 2.346-1.963 2.917l2.98-7.708.708 2.1zm-7.733 8.65c-1.262 1.292-2.5 2.85-3.687 4.396a143.23 143.23 0 0 0-2.546 3.504 54.36 54.36 0 0 1 .229-2.571c1.942-3.1 4.32-5.225 6.004-5.33zm5.15 11.1l.15-.146h.015c-.033.18-.075.358-.1.546a8.8 8.8 0 0 0-.08 1.138 7.69 7.69 0 0 0 2.204 5.388l-4.558-.05c-.062 0-.13-.008-.196-.008l-.804.033c1.75-1.862 2.92-4.2 3.375-6.892zm.962-3.542l-1.87 1.346a14.52 14.52 0 0 0-.654.529c-.12.154-.217.18-.354.38-3.642 3.575-6.187 4.846-7.383 4.787-.888-.025-1.358-.425-1.912-1.767-.075-.187-.146-.546-.196-1.016.904-1.17 2.475-3.56 4.38-6.062 2.133-2.867 4.763-5.77 6.233-6.342 1.912-.863 2.767-2.733 3.637-4.288.838-1.62 1.708-2.854 2.392-2.996l3.688-1.058c.137.083.392.358.683.767l-2.475 1.058.896 2.083 2.738-1.17c.13.292.267.583.38.9v.008l-2.692 1.1.854 2.092 2.604-1.06c.087.308.18.62.25.93l-2.504.933.788 2.117 2.1-.78c.008.137.017.275.017.396.008.442-.058.767-.112.896-.008.017-.017.033-.017.042-1.23.425-5.3 2.4-7.708 3.67v.008a118.53 118.53 0 0 0-3.758 2.504zm19.28-6.575a38.25 38.25 0 0 0 1.008 2.1c.742 1.417 1.483 2.596 2.288 3.492a7.06 7.06 0 0 0 .854.804l-.992.63c-.287-1.367-1.058-3.354-3.142-4.72l.017-.854c0-.408-.008-.887-.033-1.45zm-2.517 10.8a8.42 8.42 0 0 0-.888 1.025l-1.733-.146-.812 1.817 1.304.72c-.288.808-.467 1.654-.475 2.525a5.98 5.98 0 0 0 .313 1.913c-.092.046-.18.104-.28.154a2.54 2.54 0 0 1-.975.204c-.725.008-1.467-.342-2.03-.904-.558-.554-.875-1.296-.875-1.92.008-.437.13-.838.488-1.254l-1.554-1.625c-.708.55-1.483.787-2.192.787-1.437-.05-2.496-.838-2.53-2.483a3.68 3.68 0 0 1 .033-.512c.146-1.267 1.546-2.342 2.863-2.325.896.033 1.67.366 2.262 1.587l2.108-.792c-.075-.258-.104-.496-.104-.725 0-.717.325-1.358.883-1.862s1.32-.804 2.038-.804c.57.008 1.088.162 1.587.558.908.758 1.063 1.354 1.088 1.996.008.708-.317 1.467-.592 2.033l.07.033zm-30.117-52.692c-1.8.908-3.03 2.767-3.03 4.912 0 1.4.53 2.688 1.4 3.654l.025.075 1.638 4.833h-.033v8.454a242.2 242.2 0 0 0-3.646 6.104v-19.67h-.017v-1.742c.17-.533.275-1.104.275-1.7a5.38 5.38 0 0 0-.275-1.675v-1.97h.017v-13.988c.675 2.888 1.904 5.654 3.646 8.188v4.525zm-3.646-46.208v-9.396l3.842 5.842c-1.35 1.08-2.63 2.27-3.842 3.554zm3.646-.408v15.004a24.8 24.8 0 0 0-3.646 8.363v-19.562c1.146-1.375 2.358-2.646 3.646-3.804zm-4.68-42.466c-1.142-1.7-3.1-2.83-5.325-2.833a6.72 6.72 0 0 0-4.279 1.562v-1.254l9.504-14.48 10.38 15.796v.15a7.35 7.35 0 0 0-4.746-1.775c-2.28.004-4.304 1.117-5.533 2.833zm-9.596 3.417c0-2.13 1.97-3.984 4.27-3.988 2.287.004 4.096 1.8 4.096 3.988h.025c-.008.125-.025.25-.025.38v13.608l-8.375 12.762v-26.75h.008zm8.367 18.116v7.82l-8.375 12.758v-7.825l8.375-12.754zm0 11.946v12.004c-3.68 4.617-6.55 10.25-8.375 16.67v-15.917l8.375-12.758zm-8.333 45.275c0-6.775 1.05-12.996 2.92-18.5v28.813a5.5 5.5 0 0 0-2.963 3.887v-14.2h.042zm2.92 20.175v33.025c-.658 1.563-1.1 2.863-1.246 3.8-.196.667-.283 1.367-.283 2.058.017 2.63 1.204 5.288 2.946 7.633h-4.38v-50.4a5.5 5.5 0 0 0 2.963 3.883zm7.146 51.7c1.025.58 2.075 1.025 3.133 1.28l-.425.333c-2.13 1.83-4.5 4.517-6.217 10.238-1.146 3.8-3.338 12.1-6.6 19.204V1750.7h10.108zm-12.85 62.108c.358-.725.667-1.333.95-1.65.313-.317.442-.417.93-.433.725.008 1.025.058 1.53.375.513.317 1.23 1.04 2.28 2.45a10.7 10.7 0 0 0 2.45 2.337h-10.4c1.146-.92 1.808-2.134 2.262-3.08zm74.154-219.625l-8.375-12.746v-3.846h2.05v-2.262h-2.05v-2.033h-2.262v2.033h-2.025v2.262h2.025v4.304l-9.238 14.067v-26.442h19.875v24.663zm-18.492 7.625c.888-.804 2.1-1.3 3.354-1.3 2.508 0 4.5 1.975 4.5 4.367v13.608l-9.238 14.02v-27.854c.067-1.083.563-2.075 1.383-2.833zm7.854 20.78v7.846l-5.533 8.633a35.45 35.45 0 0 0-3.704-2.267v-.192l9.238-14.02zm-6.138 18.83v13.83a26.07 26.07 0 0 0-3.862-3.358v-12.95c1.333.72 2.62 1.563 3.862 2.48zm-34.446 10.9a25.6 25.6 0 0 0-3.646 3.325v-13.987a33.19 33.19 0 0 1 3.646-2.433v13.096zm-3.9-13.288l-5.654-8.612v-7.833l9.342 14.18a35.74 35.74 0 0 0-3.687 2.267zm-5.654-20.562v-13.608c.008-2.388 2-4.363 4.5-4.367 1.262 0 2.483.504 3.375 1.3.758.7 1.237 1.592 1.37 2.567l.008 28.15-9.254-14.05zm0-36.808v-4.075h2.033v-2.262h-2.033v-2.033h-2.262v2.033h-2.025v2.262h2.025v4.075l-8.375 12.754v-24.9h19.883v26.217l-9.246-14.07zm-6.012-26.646h-4.625v-20.78h.008l-.008-.017v-.004l-1.454-2.48v-8.204h2.025v-2.263h-2.025v-2.033h-2.262v2.033h-2.037v2.263h2.037v8.283l-1.442 2.4h-.017v21.52l-13.25 20.033v-54.237c7.446-2.63 15.146-4.73 23.05-6.258v39.742zm-9.8 4.825v43.167l-5.508-8.37v-6.604h2.058v-2.263h-2.058v-2.037h-2.262v2.037h-2.013v2.263h2.013v6.608l-5.48 8.354v-23.12l13.25-20.033zm-6.633 37.196l6.633 10.096v5.567a5.28 5.28 0 0 0-2.842-.846c-1.52 0-2.896.687-3.808 1.758-.92-1.08-2.3-1.758-3.817-1.758a5.13 5.13 0 0 0-2.783.825v-5.554l6.617-10.088zm-3.833 17.08c1.483 0 2.696 1.192 2.696 2.558v44.246l-5.48 8.346v-52.583c.025-1.333 1.304-2.567 2.783-2.567zm3.833 49.204l6.633 10.088v19.287a5.05 5.05 0 0 0-2.662-.775c-1.546.008-3 .708-3.963 1.825a5.17 5.17 0 0 0-3.904-1.825c-.996.008-1.93.296-2.72.8v-19.32l6.617-10.08zm-3.896 30.862c1.47.01 2.758 1.23 2.758 2.567v49.763h-5.48v-49.804c.033-1.337 1.262-2.516 2.72-2.525zm2.758 57.513v50.017c-.058.067-.125.112-.18.17v-5.242l-5.3-9.417v-35.53h5.48zm-3.638 45.85v20.28l-2.704 2.362v-27.442l2.704 4.8zm104.596 20.28v-20.28l2.696-4.8v27.433l-2.696-2.354zm1.833-242.288l-13.25-20.046v-21.258h.008l-.008-.013v-.004h-.008l-1.425-2.446v-8.237h2.033v-2.263h-2.033v-2.033h-2.27v2.033h-2.042v2.263h2.042v8.246l-1.462 2.438h-.017v20.8h-4.6v-39.77a161.66 161.66 0 0 1 23.033 6.238v54.054zm-38.308-18.254h19.875v9.975H1984.8v-9.975zm0-2.267v-16.217h.008c0-1.504 1.117-2.554 2.092-2.558.48 0 1.008.242 1.433.708a2.74 2.74 0 0 1 .7 1.842v16.225h-4.233zm6.496 0v-16.217c.008-1.42 1.137-2.554 2.554-2.558.7-.004 1.417.296 1.938.788s.82 1.133.82 1.804h.008v16.183h-5.32zm5.32-24.467v4.267c-.804-.525-1.767-.83-2.767-.838-1.47.004-2.767.67-3.646 1.704-.796-1.017-1.97-1.684-3.304-1.704-1.042.017-1.963.43-2.7 1.075v-5.333l5.963-9.08 6.454 9.908zm-12.4-22.117c.087-1.354 1.154-2.38 2.408-2.38 1.3 0 2.408 1.108 2.408 2.546v9.637l-4.833 7.354v-16.992h.033c0-.054-.008-.108-.017-.167zm-7.1-34.958a203.62 203.62 0 0 1 11.917.808v21.646l-5.925-15.208-5.992 15.383v-22.63zm0 30.304h.017c0-.104-.017-.213-.017-.317v-1.12l5.992-15.388 5.925 15.204v2.342c-.7-.442-1.52-.708-2.408-.708-1.433 0-2.687.667-3.542 1.692-.854-1.025-2.108-1.692-3.537-1.692-.896 0-1.73.27-2.43.717v-.73zm0 4.82c0-1.433 1.133-2.546 2.43-2.546 1.25 0 2.325 1.033 2.408 2.383 0 .058-.017.108-.017.163v16.992l-4.82-7.35v-9.642zm4.82 21.12v5.404c-.783-.696-1.767-1.13-2.85-1.146-1.3.02-2.4.646-3.15 1.608-.83-.98-2.033-1.604-3.408-1.608a4.48 4.48 0 0 0-2.354.679v-5.17l5.804-8.85 5.958 9.084zm-11.763-4.363v-21.583c.017-1.47 1.092-2.546 2.354-2.55 1.196.004 2.237 1.013 2.32 2.4v14.608l-4.675 7.125zm-7.088-51.967l5.958-.092a193.29 193.29 0 0 1 5.804.088v16.092l-5.917-15.18-5.846 14.987v-15.896zm0 22.133l5.846-14.996 5.917 15.18v3.917a4.45 4.45 0 0 0-2.321-.663c-1.425.004-2.654.658-3.492 1.67a4.62 4.62 0 0 0-3.542-1.675 4.6 4.6 0 0 0-2.408.708v-4.142zm0 8.004c.125-1.317 1.183-2.3 2.408-2.308 1.313.008 2.412 1.104 2.417 2.55v21.82l-4.825-7.354v-14.708zm4.825 26.192v4.975c-.696-.442-1.52-.713-2.408-.717a4.59 4.59 0 0 0-3.529 1.667c-.8-.992-1.954-1.646-3.28-1.667-1.05.013-1.97.43-2.704 1.08v-5.333l5.967-9.088 5.954 9.084zm-11.9-4.126v-17.042c.025-1.412 1.117-2.5 2.417-2.5s2.408 1.108 2.417 2.537v9.646l-4.834 7.36zm-7.08-51.296c3.937-.396 7.908-.658 11.912-.82v22.392l-5.917-15.2-5.996 15.412v-21.783zm0 28.017l5.996-15.413 5.917 15.204v1.446c0 .075-.025.146-.025.225h.025v.725c-.708-.446-1.52-.713-2.417-.713-1.433 0-2.683.667-3.537 1.684-.846-1.025-2.108-1.684-3.55-1.684-.896 0-1.708.267-2.408.708v-2.183zm0 6.283c0-1.437 1.108-2.546 2.408-2.546s2.375 1.083 2.408 2.5c0 .012-.008.03-.008.046h.008v16.992l-4.817-7.354v-9.637zm4.817 21.12v5.412c-.78-.696-1.767-1.137-2.846-1.154-1.33.02-2.433.67-3.183 1.654-.88-1-2.158-1.65-3.596-1.654a5.13 5.13 0 0 0-2.758.825v-4.262l6.438-9.896 5.946 9.075zm-12.383-3.33v-11.767a148.54 148.54 0 0 1 5.296-.833v4.446l-5.296 8.154zm-105.608 187.317h-5.6c1.808-.904 3.054-2.767 3.054-4.925 0-2.18-1.275-4.058-3.117-4.954h5.662v9.88zm-10.45-9.88c-1.842.896-3.117 2.775-3.117 4.954 0 2.158 1.246 4.02 3.054 4.925h-5.138v-9.88h5.2zm-5.2-3.458v-10.55h.033c0-.7.342-1.367.97-1.904a3.73 3.73 0 0 1 2.42-.87c1.833.008 3.162 1.32 3.167 2.775v10.55h-6.592zm3.238 8.413a4.37 4.37 0 0 1 4.358-4.362 4.37 4.37 0 0 1 4.358 4.362c-.004 2.4-1.954 4.354-4.358 4.354s-4.354-1.954-4.358-4.354zm12.412-8.413h-6.792v-10.55c0-1.43 1.358-2.767 3.262-2.775a4.01 4.01 0 0 1 2.508.879c.654.546 1 1.213 1 1.896h.02v10.55zm0-14.512a6.35 6.35 0 0 0-3.529-1.075c-1.754 0-3.362.758-4.387 1.98-1.004-1.212-2.58-1.98-4.308-1.98a6.12 6.12 0 0 0-3.425 1.05v-5.5l7.725-11.82 7.858 12.033.067-.042v5.354zm0-9.346l-6.792-10.4v-4.346h2.03v-2.263h-2.03v-2.033h-2.267v2.033h-2.033v2.263h2.033v4.346l-6.592 10.088v-16.133l15.65-22.388v38.833zm0-42.78l-15.65 22.383v-26.946l-1.704-2.788-1.754 2.788v87.996h19.108V1767c-18.47-26.383-29.304-58.488-29.304-93.137 0-34.642 10.842-66.746 29.304-93.12v51.987zm.017-63.65h-.017v.03l-.004.004h.004v7.725a164.12 164.12 0 0 0-31.567 97.025c0 36.27 11.713 69.804 31.567 97.03v53.988a203.53 203.53 0 0 1-9.175-8.604c-36.47-36.475-59.017-86.825-59.017-142.48s22.546-106.008 59.017-142.484c31.513-31.504 73.388-52.604 120.08-57.775v36.967c-1.775.24-3.542.52-5.296.82l-.017-27.037-1.733-2.192-1.704 2.192h-.004v.016l-.008.008h.008v27.633a164.32 164.32 0 0 0-23.05 6.175v-5.983h-.042l-2.513-4.312-2.588 4.312h-.042v7.888c-5.096 1.967-10.067 4.183-14.908 6.625v-6.05l-3.454 5.62v2.25a165.27 165.27 0 0 0-31.783 22.175v-6.02l-3.454 5.354v3.842c-5.4 5.08-10.458 10.512-15.133 16.275v-1.016h-.02l-2.542-4.33-2.604 4.33zm52.012 260.096v-2.304h2.258v-2.263h2.304v2.263h2.25v2.304h-2.25v2.254h-2.304v-2.254h-2.258zm-46.846-6.388v-3.458h64.625l3.87 3.458h-68.496zm35.9 6.388v-2.304h2.258v-2.263h2.304v2.263h2.25v2.304h-2.25v2.254h-2.304v-2.254h-2.258zm-10.946 0v-2.304h2.262v-2.263h2.292v2.263h2.258v2.304h-2.258v2.254h-2.292v-2.254h-2.262zm-10.946 0v-2.304h2.263v-2.263h2.3v2.263h2.258v2.304h-2.258v2.254h-2.3v-2.254h-2.263zm9.892-244.22l4.167 6.342v22.496h-3.025v-18.692l1.063-1.696-2.192-3.504-2.192 3.504 1.058 1.688v18.7h-4.192v-20.917l5.313-7.92zm-5.312 3.858v-35.113l4.192-3.704v32.567l-4.192 6.25zm31.783 4v20.97h-4.187v-18.696l1.063-1.692-2.192-3.504-2.196 3.504 1.063 1.692v18.696h-3.025v-22.496l4.17-6.346 5.304 7.87zm-4.187-10.258v-49.175a167.59 167.59 0 0 1 4.188-2.363v57.75l-4.187-6.213zm-4.02 99.292v4.384c-1.87-.317-3.846-.52-5.946-.6v-.133l7.075-10.787 7.08 10.787v3.125c-1.82-.78-3.796-1.437-5.946-1.933v-4.842h-2.262zm-5.946-.475v-30.275c.57-.704 1.517-1.196 2.67-1.204 1.912.008 3.27 1.346 3.275 2.775v19.642l-5.946 9.062zm8.208-9.062l.004-19.642c0-1.525 1.246-2.77 2.842-2.775a3.27 3.27 0 0 1 2.17.85c.57.525.908 1.2.908 1.925h.02v28.704l-5.946-9.062zm2.846-24.68a5.15 5.15 0 0 0-4.025 1.937c-1.03-1.196-2.617-1.933-4.358-1.937a5.9 5.9 0 0 0-2.67.642v-1.35l6.85-18.963 7.304 20.208v.446c-.892-.616-1.97-.975-3.1-.983zm-4.204-26.33l-6.85 18.958v-24.212h14.154v25.463l-7.304-20.208zm.854-61.163l-4.158-6.333-4.146 6.325v-20.025c2.708-1.875 5.483-3.666 8.304-5.383v25.417zm-4.158-2.208l4.158 6.33v18.3l-3.025 4.608v-15.808h2.058v-2.262h-2.058v-4.367h-2.262v4.367h-2.017v2.262h2.017v15.804l-3.017-4.6v-18.304l4.146-6.33zm-1.13 33.358v22.496h-3.02v-18.692l1.067-1.696-2.192-3.504-2.196 3.504 1.058 1.692v18.696h-3.02v-22.496l4.154-6.325 4.15 6.325zm-5.283-31.15l-4.154-6.333-4.154 6.333v-12.046a167.01 167.01 0 0 1 8.308-6.387v18.433zm-4.154-2.208l4.154 6.33v18.304l-3.02 4.604v-15.808h2.188v-2.262h-2.187v-4.367h-2.263v4.367h-1.88v2.262h1.88v15.808l-3.025-4.608v-18.296l4.154-6.333zm3.562 58.117v24.904l-7.07-19.542-7.1 19.63v-24.992h14.17zm-7.07 12.017l7.07 19.542v.67a5.98 5.98 0 0 0-2.679-.646c-1.754.004-3.358.758-4.387 1.975a5.45 5.45 0 0 0-4.17-1.975c-1.08 0-2.083.342-2.933.9v-.838l7.1-19.63zm7.07 23.033v30.275l-5.95-9.062v-19.642c.004-1.434 1.363-2.767 3.27-2.775 1.158.008 2.104.5 2.68 1.204zm-11.237-1.204c1.617.004 3.02 1.33 3.025 2.775v19.642l-5.958 9.07v-28.98c.158-1.363 1.408-2.504 2.933-2.508zm4.158 24.817l7.08 10.787v.133a43.2 43.2 0 0 0-5.95.583v-4.433h-2.262v4.883a34.4 34.4 0 0 0-5.958 1.921v-3.08l7.092-10.796zm8.717 13.15c15.77.025 24.175 7.217 28.892 14.72 2.558 4.07 3.95 8.275 4.696 11.4-1.008-.583-2.18-.942-3.408-.992v-.008h-.292v.008c-1.708.075-3.346.725-4.55 1.783-.892-5.55-3.708-11.092-7.558-15.558-4.43-5.12-10.27-8.87-16.383-9.312-.23-.025-.475-.025-.717-.033-.146 0-.296-.017-.446-.017h-.075v.008h-.07v-.008c-.933-.008-1.804.083-2.62.237-5.65.904-11.017 4.43-15.18 9.1-3.93 4.425-6.817 9.917-7.77 15.437-1.196-1.042-2.854-1.646-4.775-1.654h-.042c-1.213 0-2.304.254-3.225.7.783-3.1 2.192-7.162 4.68-11.092 4.746-7.512 13.17-14.704 28.846-14.73zm31.32 48.037v-20.433c.667.196 1.283.496 1.77.912.742.617 1.167 1.392 1.246 2.204v67.667l-2.996 5.42v-37.988c.008-.092.008-.162.008-.254v-17.53h-.03zm-5.942-46.304v5.133c-1.633-1.546-3.52-2.963-5.646-4.213l6.783-10.483 7.82 11.92v16.7c-.838-2.296-1.983-4.783-3.525-7.267-.9-1.458-1.958-2.913-3.17-4.312v-7.48h-2.263zm2.263-11.97v-24.954c.008-1.43 1.358-2.767 3.27-2.775.95 0 1.838.346 2.467.875.617.533.958 1.196.958 1.892v35.167l-6.696-10.204zm6.68-28.967c-.967-.654-2.163-1.025-3.408-1.025-1.75.004-3.354.754-4.38 1.967-.97-1.204-2.48-1.962-4.125-1.967-1.025.004-2 .3-2.83.817l7.337-20.292 7.404 20.5zm-6.388-24.333v-99.208c2.108-.933 4.25-1.808 6.404-2.654v119.588l-6.404-17.725zm-2.262.625l-6.242 17.246v-113.004c2.063-1.058 4.137-2.083 6.242-3.054v98.812zm-3.263 24.946c1.613.004 2.97 1.304 2.97 2.775v24.962l-5.95 9.188v-34.217c.05-1.433 1.4-2.704 2.98-2.708zm-14.817 157.317c0 .758-.008 1.433-.042 1.93-.017.246-.038.442-.058.562-.004.033-.008.058-.013.075-.062.113-.167.267-.28.446v-11.484c.133-1.962.242-4.33.325-6.617.113.125.233.238.325.342v.008l.008.008c.13.154.246.296.337.425.38.554.438.83.446 1.18.083.896-1.12 2.833-1.133 6.65l.083 6.475zm-7.88-.78c-.342-.083-.68-.18-.992-.267l-.73-.22-.492-5.975 7.213 1.22c-.042.342-.083.633-.125.854-.03.137-.05.262-.075.392l-5.254-.92.454 4.917zm-8.23-2.383c-2.725-.792-5.933-1.808-7.637-2.575-1.046-.463-1.808-.713-2.558-.746a10.52 10.52 0 0 1-.233-.946l14.454 3.575.15 1.854-4.175-1.162zm1.15 2.683v9.142h-3.892v-10.28l3.892 1.137zm-6.154-1.862v11.004h-3.883v-12.47l.32.133c.942.42 2.2.88 3.563 1.333zm-7.942-11.792c-.783-.3-1.463-.488-2.1-.562v-73.65c0-.9.463-1.762 1.367-2.463.65-.508 1.53-.88 2.53-1.05v78.442c-.396-.17-.933-.392-1.796-.717zm1.792 13.825v4.72l-.554-2.117.554-2.604zm-2.812 2.92l1.233 4.68c-.87-.266-2.033-.82-3.213-2-.93-.937-1.433-2.296-1.442-4.183 0-.07 0-.146.004-.212.025-1.26.392-3.28.758-4.913.363-1.646.717-2.938.717-2.938.067-.23.058-.466-.025-.687 0 0-.18-.496-.358-1.196-.187-.7-.358-1.596-.354-2.22-.008-.383.08-.65.096-.65.48-.708.496-.708 1.012-.758h.017c.342 0 .925.12 1.77.45a30.42 30.42 0 0 1 1.283.504c-.204.6-.387 1.433-.387 2.496 0 1.02.18 2.246.642 3.646a3.61 3.61 0 0 0-.296.766c-.308 1.18-1.467 6.68-1.47 6.696-.042.17-.033.35.012.52zm-4.213-9.838c-.317 1.213-1.396 5.404-1.462 8.067a5.72 5.72 0 0 0-.008.267c-.004 2.288.65 4.33 2.1 5.78a10.89 10.89 0 0 0 2.317 1.775h-5.062v-100.434c1.975.488 2.962 1.83 2.988 3.425v74.146a3.68 3.68 0 0 0-1.179 1.329c-.358.6-.417 1.212-.425 1.812.017 1.5.504 3.133.733 3.833zm3.583-85.7c1-4.78 3.588-9.646 7.092-13.583 1.78-2.012 3.796-3.767 5.925-5.158-.77 1.292-1.367 2.733-1.792 4.254-1.3 4.446-1.558 9.742-1.617 14.812-1.325-1.016-3.113-1.612-5.008-1.63h-.05c-1.68.017-3.283.48-4.55 1.304zm50.867 23.875l-2.07 1.604-2.075-1.604h4.146zm-2.104-2.263v-17.033c0-.917.467-1.796 1.3-2.488.567-.475 1.3-.825 2.1-1.004v20.525h-3.4zm-.908 4.592l-3.55 2.733-3.48-2.687 3.012-2.375h.996l3.02 2.33zm-5.246 42.92v-17.475a35.89 35.89 0 0 0 2.142-.3c.696-.13 1.225-.23 1.75-.48v46.208c-1.308-.254-2.617-.537-3.708-.84-.062-.017-.12-.03-.183-.054l-.008-13.004c1.146-3.454 2.075-6.608 2.108-8.254-.004-3.075-1.408-5.02-2.1-5.8zm2.896-20.283s-.004.008-.058.025c-.5.196-2.208.458-3.642.596l-1.904.187-1.254-3.266c.033-.242.175-.813 1.113-1.404 1.112-.683 3.283-1.542 4.658-1.92a1.92 1.92 0 0 1 .542-.075c.346-.008.617.104.75.204.013.008.025.017.033.025-.05.033-.12.08-.23.138-.758.392-1.504.64-2.146.904-.325.13-.62.25-.93.47-.288.188-.746.625-.75 1.32a1.47 1.47 0 0 0 .054.388c.07.342.375.733.7.896.325.17.608.196.842.196 1.13-.042 2.175-.604 3.225-1.042 1.33-.633 3.846-1.675 4.53-1.675.088.063.05.046.067.113.017.087-.108.446-.458.787-.204.23-1.496 1.067-2.642 1.725a85.65 85.65 0 0 1-2.5 1.408zm-12.62 37.608c-.008-2.4.52-3.68.858-4.975l2.058.492-2.437 13.033c-.07.008-.142.008-.208.008-.092 0-.154-.008-.233-.017.037-.575.05-1.283.05-2.067l-.087-6.475zm-18.18-57.025a12.88 12.88 0 0 1 .917-.437 14.84 14.84 0 0 1 1.158-.467 12.24 12.24 0 0 0 .742 1.425c.762 1.23 1.908 2.712 3.792 3.14.77.163 1.563.23 2.308.23a18.14 18.14 0 0 0 3.438-.367 39.86 39.86 0 0 1 1.421 1.708c1.517 1.817 1.842 5.713 1.842 7.162l-4.096 1.734c-.046-.058-.096-.1-.15-.154-1.617-1.612-3.42-3.933-7.296-8.675l-1.75 1.43 3.167 3.892-6.933 5.112c-.308-.792-.546-1.37-.65-1.587-.062-.108-.483-1.254-.817-2.62-.346-1.383-.658-3.083-.658-4.55-.004-1.125.204-2.083.537-2.596 1.492-2.338 2.637-3.875 3.03-4.38zm-2.85.058v-4.713c.246.204.504.392.808.554 1.096.583 2.292.83 3.442.83.08 0 .162-.017.242-.017v.154c-1.492.458-2.887 1.238-2.937 1.254a1.37 1.37 0 0 0-.346.292c-.012.017-.47.613-1.208 1.646zm10.425-1.254c.988.246 2.08.292 3.067.3.492 0 .942-.017 1.342-.038l-.258 2.267c-.096.025-.196.042-.317.067a15.26 15.26 0 0 1-2.492.23 9.13 9.13 0 0 1-1.837-.179c-.813-.146-1.72-1.075-2.33-2.1a11.66 11.66 0 0 1-.7-1.375c-.07-.18-.13-.308-.162-.417v-.154c.867.48 2.067 1 3.688 1.4zm-2.117-3.133c.575-.325 1.07-.733 1.483-1.204l.488 1.342.258.683c-.908-.25-1.65-.542-2.23-.82zm20.183-3.484h-3.883v-17.042c0-.9.467-1.754 1.363-2.454.65-.508 1.525-.88 2.52-1.05v20.546zm1.637 2.263l-2.096 1.654-2.15-1.654h4.246zm-3.03 2.392l-2.492 1.97v-3.892l2.492 1.92zm.942.725l3.467 2.67-3.617 2.792-3.283-2.533v-.217l3.433-2.713zm-1.08 6.18l-2.354 1.813v-3.63l2.354 1.817zm.942.72l3.542 2.738-3.775 2.904-3.062-2.36v-.733l3.296-2.55zm-1.92 9.72c-.196-.287-.387-.587-.542-.904l2.242-1.725 1.258.966c-.808.342-1.583.717-2.217 1.1a4.82 4.82 0 0 0-.742.562zm2.508 8.37v14.592l-3.883-4.408v-8.613l3.883-1.57zm-1.754-11.733l-1.754 1.35c-.242-.763-.375-1.596-.375-2.458v-.537l2.13 1.646zm-1.958 7.2l-8.046 2.833.708-2.083 6.933-1.8.404 1.06zm-3.412-22.783c-.125-.28-.204-.433-.263-.725a5.46 5.46 0 0 1-.1-1.067 4.94 4.94 0 0 1 .067-.846 3.01 3.01 0 0 1 .071-.271c.02-.054.03-.054.025-.063.4-.554.533-.666.95-1.142a5.9 5.9 0 0 1 .225-.225v24.25l-1.096.292-.517-2.546v-.27c-.033-1.392-.07-5.775-2.27-8.72v-5.02h.17c.417-.008.938-.008 1.504-.187.563-.146 1.304-.692 1.475-1.533a2.93 2.93 0 0 0 .079-.667c.004-.55-.2-1-.32-1.258zm-2.313 20.775l-2.183.57-.758-.74 2.675-1.133.267 1.304zm3.288-28.408c-.142-.296-.275-.596-.392-.863a6.77 6.77 0 0 1-.262-.638c-.017-.05-.033-.096-.037-.13.08-.48.325-.938.35-1.758.008-.48-.162-1.033-.492-1.48a27.85 27.85 0 0 0-1.18-1.54 5.07 5.07 0 0 0 .825-2.804c-.013-1.346-.475-2.696-1.65-3.484a7.22 7.22 0 0 0-1.046-.57v-2.7c.992.17 1.867.542 2.517 1.05.9.7 1.367 1.563 1.367 2.463v12.454zm-2.68-3.567c.092.146.067.12.075.18.033.1-.175.62-.337 1.475-.013.088-.02.146-.02.192-1.07.35-1.608 1.175-1.608 2.046.48-.188 1.096-.254 2.113-.27.242.554.525 1.14.73 1.604.017.042.033.083.05.113-.07.067-.15.158-.233.246-.046.058-.092.104-.138.154l-1.792.87c.2.417.317.82.317 1.213-.017.625-.242 1.334-1.48 2.313l1.38 1.796a4.45 4.45 0 0 0 .371-.308c.087.22.167.4.225.52.117.263.108.27.112.317 0 .017 0 .033-.004.05-.133.042-.454.083-.792.075h-.412c-.225 0-.312-.008-.492-.008-.396 0-.842.03-3.354.204v.004l-.688.008c-.025-.012-.05-.03-.08-.054-.258-.188-.575-.442-.725-.596-.204-.325-.533-1.342-.933-2.4.833-.408 1.767-1.04 2.842-2.017 2.75-2.575 3.38-6.804 3.942-8.946a22.9 22.9 0 0 1 .933 1.221zm-15.513 38.688c.93.904 3.017 2.2 5.02 3.42l.042.02-3.817.008-.05-.18-1.263-3.333c.02.025.042.046.067.062zm-1.712-4.937l7.342-5.413.987 1.17-6.35 6.242-1.98-2zm5.546 4.946c-.83-.538-1.55-1.033-1.954-1.358l6.258-6.146.333.34.646.646-5.283 6.517zm6.904-4.92l.367.35-2.525 7.462-2.383-1.416c-.146-.083-.287-.17-.433-.263l4.975-6.133zm-14.887.53l1.112 2.887 2.08 5.454c.025.192.07.633.067 1.13.012.604-.1 1.28-.242 1.504-1.408 2.575-2.267 6.25-2.267 10.946-.004 1.654.433 2.817 1.17 3.525a2.89 2.89 0 0 0 1.246.717l.267 1.563c.27 1.496 1.142 4.012 1.896 6.037-1.033-.48-2.275-.92-3.667-1.117a11.32 11.32 0 0 0-1.421-.087c-.087 0-.158.008-.242.008v-32.567zm3.142 19.058c1.696-.333 5.617-1.108 8.033-1.733 2.046-.538 4.604-1.33 6.138-1.825a22.11 22.11 0 0 1 .154 1.32c-1.575.48-5.004 1.504-7.05 2-2 .462-5.567 1.162-7.367 1.504a23.89 23.89 0 0 1 .092-1.267zm7.463-3.933c-2 .53-5.225 1.183-7.137 1.554.358-1.896.892-3.458 1.533-4.62.346-.658.462-1.333.504-1.954l7.554-.025.383.22h.004c.292.17.658.4 1.063.667.896.596 1.883 1.442 2.133 1.92.067.092.125.23.188.4-1.487.48-4.167 1.317-6.225 1.846zm4.55-7.958l.654-1.937 9.783-3.433.38 1-10.817 4.38zm6.542-.213l.646-.258v4.85c-.412-.658-.696-1.287-.646-1.367v-3.225zm1.57 9.346l4.867 5.525-1.558 1.237-4.808-5.7 1.5-1.062zm1.533 8.17l-1.208.95-4.296-3.97a1.81 1.81 0 0 0 .204-.367c.213-.658.27-1.425.287-2.312l.133-.088 4.88 5.788zm-3 2.375l-1.7 1.342a19.04 19.04 0 0 0-1.221-1.092l.075-2.88 2.846 2.63zm4.354 7.863l2.267.537-1.004 2.896a334.65 334.65 0 0 1-3.008 8.196l-.475.233 2.22-11.862zm2.33 7.167l.004 5.6c-.613-.562-1.154-.933-1.65-1.162l1.646-4.43zm-6.367-10.442c-.08-.504-.275-1.008-.567-1.504l8.025-6.363c.213.342.438.754.625 1.275l-6.867 5.317 6.2 1.58-.408 1.342-7.008-1.646zm6.27-2.325l2.196-1.7c-.042.462-.196 1.22-.438 2.146l-1.758-.446zm7.82-33.546c.004-.033.008-.075.008-.112a2.49 2.49 0 0 0-.583-1.458l1.242-.95 2.258 1.742c-.887.054-1.925.38-2.925.78zm-1.538-2.28a3.99 3.99 0 0 0-1.567-.342c-.38 0-.77.058-1.158.17-.537.154-1.146.35-1.775.588l-1.558-1.204 3.78-2.913 3.538 2.725-1.258.975zm-2.296-5.142l-3.542-2.733 3.617-2.783 3.542 2.725-3.617 2.792zm2.27-14.3h-3.892v-20.554c.992.17 1.87.55 2.525 1.058.9.7 1.367 1.563 1.367 2.463v17.033zm-5-22.917h-.038c-1.9.008-3.692.604-5.017 1.63-.046-5.146-.275-10.516-1.562-14.992-.43-1.554-1.03-3.008-1.808-4.304 2.2 1.425 4.275 3.254 6.104 5.37 3.408 3.938 5.925 8.82 6.888 13.608-1.275-.833-2.88-1.304-4.567-1.312zm-7.317 1.604c-1.33-1.008-3.104-1.596-4.987-1.604h-.037c-1.867.008-3.592.433-4.942 1.313a.16.16 0 0 0-.058.037v-22.175c4.825.375 7.096 3.354 8.546 8.092 1.188 4.067 1.433 9.267 1.48 14.337zm-6.133.733v2.204h-.004c-.67 0-1.346.113-2.088.317a9.23 9.23 0 0 0-1.579-.462c.204-.45.542-.83 1.07-1.187.646-.425 1.55-.742 2.6-.87zm-2.63 4.75l.392.18.408-.12c.78-.246 1.363-.342 1.825-.342.688.008 1.208.18 2.08.742.213.104.458.488.57 1.008-1.088-.283-2.275-.325-3.4-.342a39.39 39.39 0 0 0-1.029.017l.1 2.262.93-.016c1.037-.025 2.167.104 2.933.308a2.41 2.41 0 0 1-1.017.829l-.267.117c-.546-.154-1.075-.187-1.517-.187-.463 0-.87.033-1.154.033v2.258c.42 0 .804-.03 1.154-.03.292 0 .533.017.758.063-.57 2.337-1.33 5.42-3.067 6.95-1.98 1.792-3.033 1.996-3.57 2.004-.075 0-.158-.008-.25-.016l-.763-.083-.354.675c-.187.442-.875.963-1.767 1.338 0-.025-.004-.042-.004-.067 0-.683.154-1.52.758-2.662l-1.992-1.062c-.767 1.412-1.03 2.675-1.03 3.725a7.65 7.65 0 0 0 .02.53h-.067a6.68 6.68 0 0 1-.875-.071c-.013-.196-.025-.417-.025-.663-.004-1.154.22-2.758 1.07-3.963l-1.858-1.292c-1.117 1.6-1.408 3.408-1.463 4.775-.463-.562-.68-1.317-.692-2.212-.013-1.28.537-2.696 1.2-3.38l.313-.333-.008-.454c-.004-.12-.004-.238-.004-.35-.013-3.046.542-6.104 2.267-7.896 1.408-1.512 3.883-2.92 6.438-2.904a7.16 7.16 0 0 1 2.954.633zm-13.567 6.104v-7.325c.004-.892.467-1.746 1.362-2.446.658-.508 1.537-.887 2.53-1.058v4.22c-.504.392-.963.8-1.363 1.22-1.417 1.525-2.154 3.42-2.53 5.387zm6.154-7.958v-2.896c1.042.13 1.95.446 2.592.87.47.317.796.658 1.004 1.042-1.296.112-2.5.48-3.596.983zm3.883-3.884c-.02-.017-.033-.03-.058-.037-1.35-.88-3.08-1.304-4.942-1.312h-.042c-1.88.008-3.654.596-4.98 1.604.058-4.996.33-10.108 1.52-14.146 1.458-4.692 3.75-7.73 8.5-8.24v22.133zm-12.296 41.458c.008.03.02.062.03.104h-.033v38.925c-.83.112-1.57.217-2.208.212-.508 0-.946-.058-1.363-.204l-.312-.117v-79.358c.996.17 1.867.542 2.517 1.05.904.7 1.367 1.563 1.367 2.463v28.37c-.537 1.05-.708 2.237-.717 3.45.004 1.758.35 3.596.72 5.104zm-5.375 40.787l1.046.383c.72.25 1.438.333 2.117.333 1.654-.008 3.154-.425 4.712-.417.367 0 .738.025 1.113.075 1.53.2 2.93.82 3.93 1.404a10.05 10.05 0 0 1 1.13.733l.154 1.88-14.37-3.537c.042-.342.108-.63.17-.854zm17.213 1.238l-1.137-.196-1.142-2.988c-.7-1.896-1.454-4.158-1.633-5.242l-.23-1.325 1.813-.4 2.33 10.15zm-.12-10.663l1.913-.48.57-.146 1.1 11.87-1.05-.18-2.533-11.067zm-3.304 20.2l1.012.267c.108.042.317.112.596.212h.008c.546.196 1.363.454 2.267.7v7.342h-3.883v-8.52zm9.18-2.696a6.78 6.78 0 0 1-.225.838c-.233.613-.362.792-.98 1.262h-.004c-.058.025-.287.083-.608.075-.07 0-.154 0-.233-.008l-.238-2.567 2.287.4zm-3.03 4.337c.417.058.83.1 1.213.1.654-.008 1.3-.058 1.942-.504a4.93 4.93 0 0 0 .738-.637v7.92h-3.892V1809zm3.87-10.067l-.825-.138-1.192-12.883a39.15 39.15 0 0 0 2.192-.7c.125-.05.254-.087.37-.137l-.18 6.38c-.088 2.58-.217 5.346-.367 7.48zm-1.35-15.592c-3.996 1.308-10.504 2.654-10.87 2.725h-.004a.65.65 0 0 1-.454-.179c-.125-.13-.346-.437-.437-1.196 1.604-.3 5.63-1.083 7.88-1.612 1.912-.463 4.83-1.317 6.575-1.846a6.56 6.56 0 0 1-.117 1.04c-.292.213-1.33.675-2.57 1.067zm1.758-12.246l2.85-1.158v1.163l-2.85-.004zm3.088 2.267c.32.896.912 1.67 1.45 2.425a19 19 0 0 0 .675.842l-2.133 1.52c-.158-1.662-.48-3.27-1.062-4.338-.096-.163-.22-.3-.333-.45h1.404zm.658 38.12a5.51 5.51 0 0 0 .97.08h.013c1.046 0 2.42-.258 4.012-1.088.146-.017.296-.042.43-.108.046.008.108.042.208.092.217.104.567.342 1.033.77.82.717 1.93 1.067 3.333 1.475 3.013.846 7.225 1.48 9.317 1.767-.008.033-.017.062-.02.087-.125.375-.108.358-.312.47-.513.22-1.187.304-1.975.304-.75 0-1.58-.075-2.425-.108-3.02-.13-6.033-.358-7.03-.583-.304-.067-.546-.067-.842-.067-1.987.008-6.38.65-7.467.813-.133-.063-.33-.063-.417-.787-.008-.058-.008-.096-.008-.154-.033-.863.65-2.1 1.18-2.963zm16.58.283v-47.858c.13-.075.25-.146.38-.23 1.196-.708 2.375-1.4 3.05-2.034v50.634a83.57 83.57 0 0 1-3.43-.513zm2.967-55.787l-2.075-1.592 2.554-1.97v1.016c-.008 1.008-.187 1.825-.48 2.546zm-3.017-2.325l-3.542-2.725 3.617-2.792 3.42 2.638v.187l-3.496 2.692zm1.025-6.242l2.47-1.904v3.808l-2.47-1.904zm-.95-.725l-3.537-2.733 3.546-2.733 3.412 2.625v.204l-3.42 2.637zm.958-6.2l2.462-1.896v3.8l-2.462-1.904zm-45.896-53.817l-5.946-9.05v-24.954c.004-1.52 1.254-2.77 2.863-2.775a3.31 3.31 0 0 1 2.179.85c.567.525.9 1.192.904 1.908v34.02zm0-44.542l-6.23-17.23v-61.63c2.02-2.175 4.1-4.283 6.23-6.342v85.2zm-.092 6.392a5.66 5.66 0 0 0-2.992-.892 5.18 5.18 0 0 0-4.05 1.95c-1.042-1.204-2.658-1.946-4.42-1.95a6.61 6.61 0 0 0-3.367.95l7.42-20.533 7.408 20.475zm-8.4-24.384l-6.642 18.375v-68.792a167.84 167.84 0 0 1 6.642-7.962v58.38zm-5.63 26.642c.658-.537 1.6-.887 2.567-.887 1.967.008 3.342 1.363 3.346 2.775v24.954l-6.925 10.675v-35.63c0-.68.35-1.346 1.013-1.888zm7.05 29.25l6.83 10.392c-2.15 1.246-4.054 2.663-5.704 4.208v-5.362h-2.262v7.675a33.89 33.89 0 0 0-3.292 4.442c-1.596 2.554-2.77 5.112-3.633 7.454v-16.384l8.063-12.425zm-4.742 35.288v100.554h-3.32v-97.18c.117-1.77 1.05-3.075 3.32-3.375zm63.688 101.504v-20.296l2.588-4.696v27.296l-2.588-2.304zm61.117 58.463c-49.396 0-94.62-17.77-129.667-47.27h8.737l6.354 5.296h41.017l5.85-5.296h9.137c18.2 6.917 37.942 10.725 58.57 10.725 20.638 0 40.367-3.8 58.57-10.725h9.08l5.77 5.296h40.438l6.354-5.296h9.45c-35.042 29.5-80.267 47.27-129.663 47.27zm82.908-290.342l4.167 6.346v22.496h-3.017V1595.1l1.058-1.692-2.192-3.504-2.187 3.504 1.058 1.684v18.704h-4.038v-21.183l5.15-7.658zm-5.15 3.604v-57.53l4.038 2.27v49.267l-4.038 6zm31.77 4.53v20.708h-4.33v-18.687l1.067-1.7-2.187-3.504-2.2 3.504 1.058 1.692v18.696h-3.02V1591.3l4.167-6.338 5.446 8.125zm-4.33-10.525v-32.683a159.21 159.21 0 0 1 4.33 3.82v35.32l-4.33-6.458zm-3.946 99.23v4.433a44.38 44.38 0 0 0-6.025-.567v-.15l7.075-10.787 7.225 11.008v2.9c-1.838-.792-3.842-1.45-6.013-1.946v-4.892h-2.262zm-6.025-.408V1651.1c.57-.704 1.517-1.196 2.67-1.204 1.912.008 3.262 1.34 3.27 2.767v19.65l-5.942 9.062zm8.212-9.054v-19.65c.01-1.525 1.254-2.77 2.858-2.775.804-.004 1.667.333 2.296.87.52.446.837.98.933 1.537v29.292l-6.088-9.275zm2.858-24.688c-1.637.004-3.096.758-4.037 1.942-1.025-1.196-2.62-1.937-4.363-1.942-.958 0-1.87.238-2.67.646v-.458l7.12-19.738 7.18 19.854v.73c-.942-.64-2.075-1.02-3.23-1.033zm-3.95-26.204l-7.12 19.725v-25.104h14.3v25.233l-7.18-19.854zm.587-61.292l-4.15-6.33-4.158 6.33v-18.53c2.842 2.037 5.617 4.158 8.308 6.375v12.154zm-4.15-2.208l4.15 6.33v18.304l-3.02 4.604v-15.804h2.02v-2.262h-2.02v-4.363h-2.258v4.363h-2.054v2.262h2.054v15.808l-3.03-4.604v-18.304l4.158-6.333zm-1.13 33.363v22.496h-3.03v-18.696l1.067-1.692-2.2-3.504-2.187 3.504 1.058 1.692v18.696h-3.03v-22.496l4.158-6.325 4.163 6.325zm-5.292-31.154l-4.158-6.33-4.15 6.33v-25.5c2.825 1.708 5.6 3.496 8.308 5.37v20.13zm-4.158-2.204l4.158 6.33v18.304l-3.03 4.608v-15.812h2.167v-2.262h-2.167v-4.363h-2.263v4.363h-1.904v2.262h1.904v15.804l-3.017-4.6v-18.304l4.15-6.33zm3.562 58.117v24.73l-6.94-19.184-7.07 19.58v-25.125h14.012zm-6.933 12.2l6.933 19.18v.846c-.804-.404-1.708-.642-2.667-.642-1.742.004-3.338.742-4.363 1.937a5.17 5.17 0 0 0-4.038-1.937 5.3 5.3 0 0 0-2.946.917v-.717l7.08-19.583zm6.933 22.85v30.275l-5.946-9.054v-19.65c.01-1.437 1.358-2.767 3.28-2.775 1.146.008 2.092.5 2.667 1.204zm-14.012 1.57c0-1.484 1.333-2.77 2.946-2.775 1.604.004 2.85 1.25 2.858 2.77v19.646l-5.804 8.854v-28.496zm6.933 22.042l7.08 10.787v.158c-2.075.07-4.025.266-5.866.575v-4.384h-2.262v4.833c-2.117.488-4.075 1.112-5.884 1.87v-3.263l6.933-10.58zm8.97 13.15c15.63.025 24.038 7.258 28.783 14.82 2.417 3.854 3.817 7.842 4.604 10.938-.912-.417-1.975-.638-3.158-.638h-.046c-1.92.008-3.583.613-4.78 1.654-.95-5.52-3.85-11.004-7.77-15.437-3.738-4.192-8.442-7.463-13.437-8.742-1.292-.4-2.742-.617-4.363-.604v.008h-.062v-.008c-.008 0-.025.008-.042.008s-.025-.008-.042-.008c-.163 0-.325.017-.488.025-.22.008-.446.008-.658.025-6.12.442-11.963 4.192-16.392 9.304-3.825 4.45-6.63 9.958-7.542 15.475-1.187-1.05-2.817-1.683-4.567-1.7h-.042a7.43 7.43 0 0 0-3.613.963c.75-3.125 2.142-7.308 4.68-11.362 4.713-7.504 13.13-14.696 28.933-14.72zm12.913 141.3v-2.304h2.254v-2.263h2.313v2.263h2.246v2.304h-2.246v2.254h-2.312v-2.254h-2.254zm-47.104-6.388l3.883-3.458h64.633v3.458h-68.517zm36.167 6.388v-2.304h2.246v-2.263h2.313v2.263h2.254v2.304h-2.254v2.254h-2.312v-2.254h-2.246zm-10.954 0v-2.304h2.254v-2.263h2.313v2.263h2.246v2.304h-2.246v2.254h-2.312v-2.254h-2.254zm-10.93 0v-2.304h2.254v-2.263h2.304v2.263h2.246v2.304h-2.246v2.254h-2.304v-2.254h-2.254zm6.487-104.467v15.275c-.042 2.854-.962 4.68-3.217 6.142a3.9 3.9 0 0 0-.213-.154c-1.48-.896-3.733-1.675-5.192-2.204-.48-.18-.958-.27-1.412-.27-1.517 0-2.737 1.067-2.783 2.42l-.125-.058c-.18-.092-.358-.17-.53-.254-1.504-1.138-2.317-3.162-2.317-5.62v-15.275h15.788zm-15.788-2.263v-7.12c2.058.325 3.492 1.87 3.492 3.546v3.575h-3.492zm57.096 78.142c-.3-.417-.75-.708-1.254-.87v-.017l-.896-.342.008-80.488c.017-1.683 1.125-3.117 3.346-3.504v100.512h-3.346v-6.42l1.646-3.117c.617-1.208 1.067-2.517 1.07-3.78 0-.667-.13-1.367-.575-1.975zm-1.817 1.35c.042.058.133.258.133.625.008.675-.312 1.775-.817 2.72l-5.004 9.462-9.017.008c.017-.096.067-.23.196-.425.08-.225 1.22-.908 2.254-1.267 1.05-.4 1.992-.637 1.992-.646l.5-.13 3.488-6.958c.358-.292 1.254-1.025 2.304-1.75 1.337-.958 3.092-1.83 3.592-1.762h.03c.313.03.304.08.35.12zm-2.596 11.792v2.15h-1.13l1.13-2.15zm-14.175 2.15h-2.033v-13.03l3.913.983v7.95c-.57.325-1.092.733-1.496 1.287-.408.6-.596 1.238-.588 1.796 0 .408.092.742.204 1.013zm-4.917-16.1l.767-2.108 14.2 5.12-.74.588-14.225-3.6zm-8.942-5.762c.008-.208.017-.42.038-.583.017-.138.05-.358.1-.65l8.625.863-2.025 5.58-1.425-.354-.054-.008s-.142-.017-.367-.058l1.358-4.087-6.25-.7zm.608 19.233a13.82 13.82 0 0 0 .017-.7 15.36 15.36 0 0 0-.333-3.183 14.34 14.34 0 0 1-.358-3.596l.008-2.33a42.7 42.7 0 0 0-.171-4.142 5.46 5.46 0 0 0 .504.333c1.042.57 2.2.93 3.092 1.15l.058 15.096h-3.55l.025-.05c.596-.88.708-1.817.708-2.508v-.07zm-22.108 2.63h-3.15v-65.308c.583.404 1.283.846 1.984 1.283l1.508.912v58.975a1.13 1.13 0 0 0-1.288.863 2.87 2.87 0 0 0-.067.654c-.008.608.17 1.675 1.013 2.62zm.02-65.954c-1.154-.704-2.462-1.583-2.683-1.837-.342-.333-.4-.57-.4-.683.008-.067.008-.12.058-.212.35.1 1.058.358 1.717.7l2.725 1.35c1.012.433 1.962.92 3.02.954.246 0 .537-.033.87-.213.333-.17.633-.563.717-.933l.017-.067a1.96 1.96 0 0 0 .02-.292c-.004-.733-.508-1.175-.796-1.338-.912-.53-1.946-.683-3.092-1.283-.083-.05-.104-.083-.113-.092.008-.042.038-.196.52-.22a1.9 1.9 0 0 1 .642.133c1.442.52 3.68 1.333 4.775 2.008.904.57 1.067 1.154 1.108 1.425l-1.067 2.408-2.504-.13a71.47 71.47 0 0 1-2.296-.154 13.09 13.09 0 0 1-.767-.083.35.35 0 0 1-.104-.016l-2.37-1.425zm21.183 2.37l-.52 1.425-9.55-3.312.275-.638 9.796 2.525zm-9.738-4.842a9.48 9.48 0 0 0 1.171-1.1v1.4l-1.17-.3zm1.17-25.008h-3.892v-7.096c.996.17 1.87.55 2.525 1.058.904.7 1.367 1.563 1.367 2.463v3.575zm6.133 12.254v14.634l-3.87-1v-29.462c0-.9.463-1.762 1.367-2.463.642-.508 1.512-.88 2.504-1.05v11.075c-.437.258-.83.554-1.137.896-.804.9-1.092 2.025-1.083 3.042.025 1.425.783 3.116 2.22 4.33zm3.82-9.58l-.05.28c-.042 0-.083-.008-.125-.008a5.57 5.57 0 0 0-1.104.112c-.1.017-.187.05-.28.075v-1.32c.458.304 1.038.604 1.558.862zm-1.558-3.187v-6.592c1.354.187 2.704.725 3.533 1.608-.096.092-.212.17-.35.28-.3.212-.775.554-1.162 1.13-.87 1.296-1.32 2.567-2.02 3.575zm.708 5.792a3.95 3.95 0 0 1 .675-.07c.76.016 1.075.25 1.72.73.592.467 1.446 1.23 2.82 1.38a5.05 5.05 0 0 0 .433.021c1.596-.063 2.717-.875 3.433-1.634.47.438 1.017.758 1.63.938-2.417 4.492-5.017 5.058-7.375 5.125-.204 0-.404-.025-.608-.033.292-.392.617-.787.9-1.067l-1.633-1.562c-.62.692-1.32 1.475-1.792 2.32-.413-.104-.796-.27-1.137-.48l.275-.383c.52-.7 1.196-1.554 1.75-2.108l-1.604-1.604c-.708.717-1.446 1.662-2 2.417-.28-.512-.433-1-.417-1.34.008-.65.146-1.12.512-1.538s1.067-.846 2.417-1.108zm17.517-8.096c.283.096 1.008.846 1.496 1.887.504 1.033.863 2.33.863 3.467a5.61 5.61 0 0 1-.104.992c-.4-.633-.817-1.42-1.067-2.263l-2.167.663c.47 1.537 1.28 2.813 1.854 3.613-.233.137-.454.25-.675.342-.567-.75-1.504-2.158-1.88-3.542l-2.18.604c.333 1.18.888 2.237 1.425 3.083-.417-.13-.792-.308-1.092-.496-.288-.18-.504-.35-.65-.48s-.187-.18-.196-.18l-.408-.433-.588.092c-.104.017-.208.017-.308.017-.846-.017-1.554-.492-1.904-1.73-.033-.12-.05-.242-.05-.354-.054-.792.858-1.875 1.5-3.275l.392-.958-.912-.47c-.87-.442-2.125-.863-3.158-1.554-1.033-.708-1.675-1.458-1.683-2.662-.008-.05.008-.12.033-.196l.012-.05c.092-.25.33-.608.767-.958.588-.47 1.45-.896 2.304-1.083a13.35 13.35 0 0 1 2.971-.358c1.658 0 3.22.4 4.22 1.433.758.796.863 1.317.88 1.854.008.538-.196 1.084-.333 1.784l-.137.846.775.367zm1.925-3.483c.57-.383 1.32-.667 2.2-.804v6.712c-.17-.538-.367-1.058-.604-1.537-.496-.97-1.05-1.817-1.767-2.408.1-.4.196-.904.204-1.475a3.17 3.17 0 0 0-.033-.487zm-22.004 87.296l-.008 2.33a16.31 16.31 0 0 0 .408 4.058c.042.18.063.35.088.52l-.754-.446-5.667-21.933 2.2-.854 1.742 4.633c1.18 3.18 1.983 5.996 1.992 11.692zm-1.62-17.112a29.18 29.18 0 0 0 1.212-.513v3.708l-1.212-3.196zm-8.983 3.467l2.546-.996 5.042 19.492-1.02-.592-6.567-17.904zm4.304 18.308c-.72.563-2.12 1.563-4.133 2.587v-13.867l4.133 11.28zm-6.704-18.283l.308.838v20.912c-1.12.287-2.3.4-3.32.4-.192 0-.38-.008-.558-.008v-58.3a91.3 91.3 0 0 0 3.142.221c.25.017.496.03.737.037v24.817l-.07.07c-1.725 1.758-2.808 3.62-2.792 5.933.046 2.758 1.83 4.475 2.554 5.08zm-.275-4.908c-.008-.058-.017-.112-.017-.17a4.71 4.71 0 0 1 .762-2.621l2.054 1.613-2.8 1.18zm7.217-.58l-5.054-3.98a21.85 21.85 0 0 1 1.162-1.104c1.012.846 3.2 2.717 4.25 3.775.616.608 1.067 1.308 1.358 1.87l-.204.075.008.03-7.283 2.842a5.13 5.13 0 0 1-.675-.804l6.438-2.704zm2.033-10.042c2.15-1.792 4.463-3.196 6.233-4.15l1.158-.604-.213 1.712-10.4 7.32-.97-.82 4.192-3.458zm-.25-2.688v-13.97l3.938 1.604-.067 9.775a39.75 39.75 0 0 0-3.87 2.592zm21.908-38.767l.77 1.35.13.12s.017.008.025.017l-8.667 2.758c-.054-.3-.163-.567-.3-.804l8.042-3.442zm-3.33-1.033c.392-.562.754-1.18 1.104-1.87.238.137.508.283.8.413l.292.52-2.196.938zm.683 23.292l2.304-1.63.454.367.717-.675c.017-.025.52-.496 1.22-1.263l-.954 2.767-3.742.433zm2.954 1.938c-.238.73-.375 1.212-.458 1.487l-8.242.767c.06-.092.096-.175.138-.246l1.75-1.23 6.813-.78zm-9.187-.313l-1.23-1.667 5.596-4.9 2.32 1.85-6.687 4.717zm9.47 3.996a20.25 20.25 0 0 1 .667 1.1 13.84 13.84 0 0 1 .646 1.212l-13.242 1.237.308-2.458 11.62-1.092zm2.083 4.517c.008.067.025.138.033.204l.104.954-14.592 1.454.154-1.275 14.3-1.338zm.4 3.404l.137 1.196-1.658.163h-.025l-13.737 1.3.146-1.146 15.137-1.513zm-.383 8.6c.742-2.408 1.163-4.125 1.375-5.1l1.708-.092-.154-1.213-.667-5.642c-.308-2.47-2.108-5.204-2.854-6.28a31.98 31.98 0 0 1 .379-1.221c.4-1.254 1.075-3.267 2.142-6.292a35.57 35.57 0 0 0 1.596-6.292v-.017a35.12 35.12 0 0 0 .358-3.15v53.746l-2.183-1.204a35.7 35.7 0 0 0-1.7-.846v-16.4zm3.046-40.925c-1.033-1.496-2.696-3.1-3.167-3.54l-1.075-1.88c.992-.058 2.083-.367 3.167-1.067.917-.6 1.53-1.4 1.912-2.287v10.663c-.108-.758-.45-1.296-.837-1.888zm-3.038-.17c.43.48.863 1 1.17 1.446.325.45.467.858.458.866.025.292.046.813.046 1.496 0 1.146-.08 2.758-.37 4.654-.408 1.52-1.562 3.287-2.646 4.62-.52.646-1.017 1.2-1.392 1.596l-7.658-6.088 3.092-6.27 7.3-2.32zm-10.288 3.27l-2.946 5.95.488.388-.683.7c-.137-.525-.275-1.08-.363-1.537a6.15 6.15 0 0 1-.125-1.179 2.61 2.61 0 0 1 .596-1.758c.413-.563 1.137-1.246 2.025-2.237l.008-.01 1-.317zm-.675 7.754l1.954 1.554-5.142 4.5-1.192-1.608 4.38-4.446zm-3.67-7.15a9.72 9.72 0 0 0-.504.6c-.617.804-1.058 1.854-1.042 3.116 0 .496.058 1.025.17 1.62.188.967.53 2.22.742 2.97l-1.904 1.93-1.304-.346v-13.954a6.48 6.48 0 0 0 1.175.275c.725.092 1.633.22 2.667.237v3.55zm-1.838 13.875l3.288 4.475c-.342.488-.92 1.1-1.65 1.27h-.012v.004a1.88 1.88 0 0 1-.38.042h-.117c-1.017 0-1.75-.413-2.275-.863a3.75 3.75 0 0 1-.467-.463l1.612-4.467zm.446 8l-.608 4.987a34.07 34.07 0 0 0-1.833.879l.05-6.737a5.72 5.72 0 0 0 2.392.87zm-8.77 19.17l-1.033-.95 9.042-6.367.213-.025-.433 2.45-7.788 4.892zm8.025 5.984l1.07-5.275 1.458-8.266 2.688-.254-4.242 17.467-1.667-.167.692-3.504zm7.6-14.025l3.108-.292-6.008 18.36-1.446-.146 4.346-17.92zm5.567-.52l2.63-.25c-.058.25-.133.53-.212.846-.392 1.554-1.058 3.883-2.125 6.958-1.058 3.033-2.408 6.07-3.483 8.325-.65 1.367-1.196 2.442-1.53 3.083l-1.442-.146 6.162-18.817zm1.333 11.208v8.983c-1.042-.375-2.117-.683-3.183-.846l-.488-.075c.854-1.692 2.33-4.704 3.67-8.062zm-4.663 10.204c.35.058.767.112 1.146.17 2.046.308 4.42 1.342 6.43 2.4 2.042 1.067 3.62 2.1 4.533 2.517.733.317 2.433.983 3.996 1.587-.342.196-.675.396-1.008.617l-15.692-5.663.596-1.63zm-12.654-38.062l-.433 1.204-9.583-3.887.3-.683 9.717 3.367zm-7.283.863v16.725l-3.892 3.22v-21.525l3.892 1.58zm-9.475 57.52c1.733 0 3.925-.22 5.925-1.187 2.588-1.238 4.354-2.5 5.242-3.2l5.508 3.225v.12c0 .058-.008.096 0 .096h.01v.033c0 .425-.088.913-.325 1.246-.025.05-.05.083-.062.1h-.042c-.333.012-1.4-.23-3.1-.238a19.77 19.77 0 0 0-1.329.05c-3.792.275-5.288.992-7.713.975-.187 0-.392 0-.604-.008-3.142-.12-4.287-.317-4.925-1-.087-.092-.167-.188-.225-.28.47.033 1.033.067 1.642.067zm16.563-31.446c-.796.488-1.8.954-2.604 1.28a.94.94 0 0 1-.137.054 10.97 10.97 0 0 0-.775-1.325l5.762-3.612-.35 1.954c-.204.283-.77.958-1.896 1.65zm2.108 13.55l2.888.317-.52 1.57a9.08 9.08 0 0 1-1.333-.575c-.462-.22-.808-.708-1.033-1.312zm9.23 5.94v13.6h-3.875l-.05-14.592 3.925 1zm12.246 3.092l-2.504 4.996c-.33.1-.792.238-1.304.425v-6.38l3.808.958zm6.225-6.883l-3.888-1.538v-81.592c.992.163 1.87.542 2.53 1.05.896.7 1.358 1.554 1.358 2.454v79.625zm-4.996-85.5h-.042c-1.554.008-2.97.358-4.133 1.008a6.03 6.03 0 0 0-.667-.796c-.067-.067-.137-.12-.212-.187-.05-5.583-.267-11.108-1.98-15.463-.183-.513-.412-1-.658-1.47 1.85 1.3 3.592 2.863 5.154 4.63 3.508 3.93 6.096 8.804 7.088 13.575-1.27-.817-2.867-1.287-4.55-1.296zm-7.333-1.358c-1.096-.4-2.262-.546-3.35-.546-1.27 0-2.475.188-3.475.417-1.175.266-2.296.787-3.192 1.512l-.058-20.817a16.52 16.52 0 0 1 1.85.275l.054.016a10.46 10.46 0 0 1 .458.117c3.025.863 4.712 2.87 5.917 5.775 1.384 3.475 1.725 8.238 1.796 13.25zm-9.008 8.912c.8.53 1.646.908 2.313 1.204-.48.78-1.1 1.804-1.142 3.167a3.62 3.62 0 0 0 .125.925c.025.1.063.188.087.288-.446.6-1.392 1.454-2.187 1.4-.058 0-.12 0-.196-.008-.617-.075-.983-.375-1.667-.913a7.1 7.1 0 0 0-.8-.562c.075-.417.146-.938.213-1.442.05-.47-.196-.933-.617-1.146-.32-.146-.775-.383-1.192-.596.604-.942.996-1.812 1.417-2.57a45.34 45.34 0 0 1-.096 1.808c-.058.504.438.413 1.392.463.95.042 1.513-.22 1.513-.22s-.058-.333-.675-1.008c-.613-.667-2.092-1.05-2.12-1.06.117-.204.23-.446.354-.625.188-.27.3-.35.625-.588a6.69 6.69 0 0 0 .662-.537c.52.87 1.258 1.546 1.992 2.02zm-8.258-7.554h-.05c-1.88.017-3.654.604-4.97 1.604.038-5.08.283-10.287 1.47-14.354 1.45-4.704 3.704-7.675 8.48-8.067l.058 22.183c-1.53-.975-3.387-1.35-4.988-1.367zm-5.72-13.387c-1.296 4.483-1.52 9.862-1.562 15.016-1.337-1.025-3.125-1.62-5.012-1.63h-.033c-1.696.008-3.296.48-4.567 1.313.963-4.788 3.475-9.67 6.883-13.608 1.825-2.117 3.892-3.946 6.088-5.37a17.36 17.36 0 0 0-1.796 4.28zm-10.246 16.808c.65-.508 1.52-.88 2.512-1.05v7.087h-3.88v-3.575c0-.9.463-1.762 1.367-2.463zm53.45 99.47v-100.52c.88.154 1.53.48 1.975.9.467.442.775 1.017.913 1.758l.025.22a5.82 5.82 0 0 1 .05.563v97.08h-2.962zm-.658-114.392c-.93-1.487-2.004-2.975-3.242-4.408v-7.804h-2.262v5.458c-1.675-1.58-3.58-3.042-5.758-4.32l6.808-10.383 8.075 12.346v16.608a41.46 41.46 0 0 0-3.62-7.496zm-3.312-23.858v-24.954c.01-1.42 1.383-2.763 3.342-2.775.97 0 1.92.354 2.583.887.633.52.975 1.15 1.008 1.788v35.667l-6.933-10.613zm6.796-28.992a6.56 6.56 0 0 0-3.454-1c-1.754.004-3.384.746-4.425 1.946a5.14 5.14 0 0 0-4.029-1.946 5.38 5.38 0 0 0-2.896.846l7.38-20.4 7.425 20.554zm-6.22-23.87v-58.838c2.2 2.475 4.316 5.017 6.358 7.62v68.804l-6.358-17.587zm-2.263-.404l-6.38 17.633v-85.067c2.183 2.108 4.313 4.27 6.38 6.504v60.93zm-3.425 25.537c1.588.004 2.842 1.25 2.85 2.767v24.963l-5.804 8.837v-34.1c.17-1.337 1.433-2.463 2.954-2.467zm-47.737 2.775c.008-1.525 1.262-2.77 2.85-2.775.796 0 1.658.333 2.28.87s.975 1.22.975 1.904v34.425l-6.096-9.463-.008-24.962zm6.104-10.308l-6.388-17.692v-98.596a153.48 153.48 0 0 1 6.388 3.125v113.163zm-.17 6.188a5.93 5.93 0 0 0-3.083-.917 5.13 5.13 0 0 0-4.021 1.942c-1.033-1.2-2.63-1.937-4.362-1.942a6.24 6.24 0 0 0-3.296.95l7.396-20.437 7.367 20.404zm-8.48-23.975l-6.412 17.717v-119.888a163.39 163.39 0 0 1 6.412 2.654v99.517zm-5.454 26.196c.62-.53 1.517-.875 2.467-.875 1.904.008 3.262 1.346 3.27 2.767v24.97l-6.696 10.213V1652.6c.025-.667.358-1.3.958-1.817zm6.863 29.27l6.762 10.483a31.14 31.14 0 0 0-5.55 4.167v-5.104h-2.262v7.446a33.43 33.43 0 0 0-3.208 4.354c-1.562 2.52-2.717 5.054-3.562 7.375v-16.792l7.82-11.93zm-7.804 38.825c0-.933.454-1.804 1.258-2.496.458-.392 1.033-.683 1.67-.88V1740c0 .054.008.12.008.188h-.008v51.42l-2.946-5.338.017-67.383zm1.708 77.663v20.304l-2.587 2.304v-27.296l2.587 4.687zm81.508 19.742c-3 3.013-6.12 5.917-9.308 8.725v-53.913c19.938-27.262 31.704-60.875 31.704-97.225 0-36.36-11.767-69.958-31.704-97.22v-7.562h-.025l-2.613-4.33-2.538 4.33h-.008v.025l-.008.008h.008v.813a165.32 165.32 0 0 0-15-16.113v-3.825l-3.458-4.783v5.433a165.39 165.39 0 0 0-31.77-22.167v-2.875l-3.45-5.046v6.108a165.87 165.87 0 0 0-15.062-6.692v-7.758h.008l-2.567-4.375-2.617 4.375h-.008v5.863a164.59 164.59 0 0 0-23.033-6.154l-.008-27.63-1.75-2.213-1.717 2.213h.017v27.012l-5.32-.813v-36.967c46.75 5.138 88.688 26.25 120.23 57.792 36.475 36.475 59.03 86.833 59.03 142.484s-22.554 106.004-59.03 142.48zm-.258-157.775v-2.033H2109v2.033h-2.038v2.263H2109v4.346l-6.788 10.358v-38.983l15.642 22.37v16.325l-6.592-10.07v-4.346h2.033v-2.263h-2.033zm-1.133 9.008l7.725 11.813v5.5a6.21 6.21 0 0 0-3.421-1.042c-1.73 0-3.304.767-4.312 1.98-1.025-1.22-2.625-1.98-4.375-1.98-1.27 0-2.525.392-3.533 1.067v-5.246l7.917-12.092zm5.542 40.27a5.52 5.52 0 0 0-3.108-4.954h5.292v9.88h-5.233c1.808-.904 3.042-2.767 3.05-4.925zm-5.5 4.354a4.37 4.37 0 0 1-4.362-4.354c.008-2.408 1.954-4.354 4.362-4.362a4.36 4.36 0 0 1 4.346 4.362 4.35 4.35 0 0 1-4.346 4.354zm1.092-12.767v-10.558c.008-1.446 1.333-2.758 3.17-2.766.912-.008 1.817.342 2.45.88.596.5.92 1.108.97 1.742v10.704h-6.592zm-8.058-12.437c.65-.538 1.587-.896 2.542-.888 1.896.008 3.246 1.346 3.254 2.775v10.55h-6.788v-10.696c.042-.625.375-1.237.992-1.742zm4.567 15.896c-1.838.896-3.108 2.775-3.108 4.954a5.51 5.51 0 0 0 3.05 4.925h-5.5v-9.88h5.558zm13.533 13.338l.008-87.996-1.75-2.788-1.7 2.792h-.008v26.733l-15.642-22.37v-52.004c18.554 26.417 29.442 58.604 29.442 93.333 0 34.738-10.887 66.917-29.442 93.333v-51.034h19.092zm-8.975-38.517l-2.2-3.508-2.187 3.508 2.188 3.508 2.2-3.508zm-72.52-174.988l2.1.942.93-2.05 2.05.92.946-2.1-2.05-.925.925-2.054-2.108-.946-.917 2.058-2.062-.93-.942 2.1 2.05.93-.92 2.054zm-.404 5.896l-2.1-.95-.93 2.058-2.058-.925-.946 2.1 2.054.925-.93 2.063 2.1.95.938-2.067 2.058.93.942-2.1-2.058-.93.93-2.054zm85.463 56.45l.133-.096.096-3.65-3.508-.488-.104.075.033 1.433-11.654 8.946-.58-.208-.283-3.054 10.317-7.925c.858-.65 1.313-.225 1.313-.225l.146-.112-.075-4.162-3.708-.454-.13.096c.55.72.496 1.87.496 1.87l-10.662 8.18c-.57.442-1.117.2-1.117.2l-.146.113.638 5.175s4.23 1.117 7.175 2.42l10.354-7.954c.658-.5 1.267-.18 1.267-.18zm-58.35-41.608l-1.913-1.275-1.258 1.875-1.87-1.25-1.28 1.917 1.87 1.254-1.254 1.87 1.92 1.28 1.254-1.875 1.87 1.254 1.28-1.92-1.87-1.25 1.25-1.88zm-73.542 69.688l2.192 3.512 2.188-3.512-2.187-3.504-2.192 3.504zm67.725-76.875l.092-.175-3.662-3.87 7.438-2.838-.367-.792-1.142.512c-1.054-1.287-2.692-3.704-3.163-4.804-2.742.012-8.513-1.333-8.513-1.333l-2.562 4.967c-.384.717-1.254.6-1.254.6l-.075.14 3.963 4.613-9.667 3.833.446.563 1.85-.667c1.317 1.196 3.613 3.85 3.962 4.58.87-.142 7.196.342 8.7.8l2.88-5.554c.325-.64 1.075-.575 1.075-.575zm-8.52 4.742l-.667-.025c-.804-1.35-3.517-4.362-4.183-5l6.396-2.558 1.52 1.658-3.066 5.925zm2.425-8.85l-1.537-2.063 2.783-5.366.392.037s2.188 3.983 3.57 5.5l-5.208 1.892zm51.042 30.42l.13-.133-.992-4.617-3.662-.24-.658-3.904s-1.367.2-3.817 0l-.104.113c.567.554 1.07 1.592.875 1.792l-9.546 9.958c-.56.596-1.22.366-1.22.366l-.104.113.45 3.625 3.53-.037.1-.1-.238-1.413 9.48-9.896 1.646.146.496 2.125-9.12 9.504c-.742.783-1.262.425-1.262.425l-.13.13.7 4.108 3.733-.104.112-.113c-.65-.638-.762-1.783-.762-1.783l9.3-9.692c.496-.52 1.067-.37 1.067-.37zm6.342 8.763c.53-.488 1.087-.296 1.087-.296l.137-.117-.2-4.17s-1.187.158-3.8-.27l-.117.1s1.313 1.367.504 2.1l-9.762 8.804c-.808.725-1.296.33-1.296.33l-.137.13.4 4.134 3.74.162.113-.1c-.617-.675-.633-1.83-.633-1.83l9.963-8.983zm-28.817-10.304l8.52-10.85c.504-.642 1.17-.492 1.17-.492l.096-.125-.804-3.554-3.517.396-.08.104.38 1.383-8.454 10.783-1.667.004-.683-2.054 8.12-10.366c.667-.842 1.22-.546 1.22-.546l.104-.138-1.1-4.017-3.708.47-.092.133c.717.55.93 1.688.93 1.688l-8.292 10.57c-.442.57-1.017.475-1.017.475l-.133.142 1.458 4.496 3.68-.12 1.025 3.817s1.342-.33 3.808-.38l.083-.13c-.63-.488-1.23-1.467-1.05-1.692zM1932.15 1867.26l3.87-3.004s.008-1.146.067-1.484c-1.433.433-4.525 2.083-4.525 2.083-.042.7.588 2.404.588 2.404zm187.896-322.62l-4.892.063s-.708.908-.95 1.14c1.392.517 4.875 1.063 4.875 1.063.446-.53.967-2.267.967-2.267zm-163.092-47.687l-2.192-3.517-2.196 3.517 2.196 3.496 2.192-3.496zm-6.975 30.917l-2.196-3.5-2.192 3.5 2.192 3.513 2.196-3.513zM1828.87 1710.7v-1.804h1.808v-2.262h-1.808v-1.817h-2.262v1.817h-1.82v2.262h1.82v1.804h2.262zm149.142-182.82l-2.18-3.5-2.196 3.5 2.196 3.513 2.18-3.513zm-6.817-37.246l-2.192-3.504-2.187 3.504 2.187 3.504 2.192-3.504zm-145.57 187.02l2.196 3.508 2.188-3.508-2.187-3.508-2.196 3.508zm159.6-180.55l-2.2-3.513-2.187 3.513 2.188 3.504 2.2-3.504zm-147.354 49.933l.113.117 4.65-1.187 1.28 7.708c.554-.513 4.375-1.56 5.22-1.52.033-.758 1.57-5.542 2.23-6.53l-4.233-4.596c-.492-.537-.308-1.104-.308-1.104l-.12-.142-3.963 1.27-.967-6.196c-.896.362-4.087.796-5.32.675-.467 2.17-2.65 6.162-2.65 6.162l3.78 4.1c.558.608.292 1.242.292 1.242zm6.98-3.308l4.52 4.912-.142.52c-1.3.07-4.354.938-5.017 1.2l-1.05-6.13 1.688-.504zm-8.646-5.108s3.792-.058 5.346-.52l.675 4.913-2.03.346-4.1-4.442.108-.296zm20.546-11.083c-.92 1.7-.933 3.458-.933 5.766 1.267-.517 4.254-.47 5.2 0v-5.917c0-3.288 1.454-5.53 1.488-5.583l1.05-1.583c1.45-.317 3.942-.233 4.746.17 0-1.35 0 .042 0-4.417 0-2.842.688-4.187 1.208-4.796h1.204c4 0 6.692-.146 8.62-1.662-.796 1.867-1.375 3.95-1.375 6.158l.008 5.475c-.08.1-.175.204-.27.317-.733.583-2.183 1.546-3.78 1.546h-5.062c.292 1.313.23 3.442 0 4.762 1.83 0 3.22-.15 4.446-.704-.704 1.45-.846 2.892-.846 4.688 1.133-.454 4.517-.417 5.358 0v-5.588c0-2.775.496-4 .7-4.4.846-.14 2.546-.325 4.142.075v-9.562c0-1.75-.375-6.56.992-8.634l1.688-2.537-.613-.408-2.196 3.313-.233.333c-.817.866-2.612 2.083-6.3 2.083h-3.388c-1.692 0-2.687-.78-2.687-1.358-.62 0-.97-.008-.97-.008l-.004 5.338a25.73 25.73 0 0 0-1.358 1.092c-.792.613-2.254 1.554-3.8 1.554h-4.167c.292 1.308.233 3.175 0 4.492 1.704 0 2.825-.075 3.77-.47-.262.746-.37 1.52-.4 2.667l-1.146 1.734c-.325.32-2.304 2.154-4.383 2.154h-5.967c.292 1.304.23 3.437 0 4.758 1.98 0 3.713-.175 5.258-.846zm41.863-18.98c-.85 1.563-1 3.075-1 5.013 1.13-.458 4.513-.425 5.363 0v-5.592c0-2.613.438-3.867.658-4.325l1.992-3.012c1.97-.033 3.688-.288 5.208-1.084-.846 1.48-1 2.9-1 4.725 1.033-.412 4.133-.38 4.908 0v-5.112c0-3.208.717-4.17.717-4.17l2.863-4.325h4.296a16.54 16.54 0 0 1 1.33.054l-2.892 3.404c-1.77 2.104-2.033 3.867-2.033 6.342 1.092-.437 4.338-.4 5.15 0v-5.363c0-2.792.52-3.954.692-4.27 5.063.78 6.82 4.037 6.82 4.037l.637-.367-2.925-4.73c-2.446-3.1-5.238-3.754-8.542-3.858-1.562-.05-12.463.033-14.446.033.88.88.904 3.05.496 4.254-.633.575-2.358 1.963-4.175 1.963h-5.963c.292 1.313.23 3.44 0 4.762 3.608 0 6.4-.583 8.704-3.662l2.012-2.6h9.958l-2.025 3.058c-.317.304-2.304 2.158-4.396 2.158h-5.963c.25 1.116.242 2.842.088 4.146l-1.65 2.488c-.008.008-2.013 1.992-4.292 1.992h-5.067c.292 1.308.238 3.438 0 4.758 1.846 0 3.242-.154 4.475-.717zm21.792 174.767h2.262v-1.813h1.825v-2.262h-1.825v-1.82h-2.262v1.82h-1.804v2.262h1.804v1.813zm3.238-77.513l-2.188-3.504-2.18 3.504 2.18 3.508 2.188-3.508zm13.925 91.175h2.262v-1.82h1.825v-2.263h-1.825v-1.817h-2.262v1.817h-1.812v2.263h1.813v1.82zm5.2-107.4l-2.187 3.504 2.188 3.512 2.2-3.512-2.2-3.504zm55.333 107.417h2.262v-1.812h1.813v-2.263h-1.813v-1.817h-2.262v1.817h-1.817v2.263h1.817v1.813zm-173.38-151.975c.383-1.45.57-4.958.57-4.958-.57-.4-2.354-.74-2.354-.74l.546 4.867s.983.6 1.238.833zm173.288 19.913h2.262v-2.275h2.27v-2.267h-2.27v-2.275h-2.262v2.275h-2.28v2.267h2.28v2.275zm-5.654-37.063l-2.2-3.5-2.18 3.5 2.18 3.513 2.2-3.513zm-2.988 37.058h2.263v-2.27h2.28v-2.263h-2.28v-2.28h-2.263v2.28h-2.287v2.263h2.287v2.27zm-67.87 120.975c3.05 0 5.508-2.467 5.517-5.508a5.52 5.52 0 0 0-5.517-5.5c-3.046 0-5.508 2.467-5.508 5.5 0 3.042 2.462 5.508 5.508 5.508zm0-9.86c2.408.004 4.363 1.95 4.363 4.35s-1.954 4.354-4.363 4.354c-2.4 0-4.346-1.954-4.354-4.354.008-2.4 1.954-4.346 4.354-4.35zm-92.567-119.05l-.15-.117-3.733 1.825-1.862-5.983c-.833.492-3.917 1.383-5.163 1.45-.146 2.212-1.725 6.48-1.725 6.48l4.342 3.504c.646.52.483 1.2.483 1.2l.117.1 4.425-1.858 2.396 7.433c.47-.583 4.1-2.18 4.938-2.275-.07-.75.75-5.696 1.254-6.78l-4.87-3.93c-.554-.458-.45-1.042-.45-1.042zm-6.058 4.362l-4.7-3.8.054-.3s3.746-.613 5.213-1.296l1.387 4.762-1.954.633zm9.78 4.417c-1.275.263-4.167 1.575-4.787 1.925l-1.933-5.904 1.596-.746 5.188 4.188-.062.537zm95.438 287.4l-5.737.016c-.725 0-1.304-.33-1.75-.716-.017-.838-.088-1.142-.088-1.142 0-.992-.342-1.992-.863-2.954a8.37 8.37 0 0 0 2.58.4h2.204s-.596-.92-.596-2.563c0-1.33.313-2.567.313-2.567l-7.146.008c-1.7 0-2.875-1.342-3.312-1.942l-.196-.288-2.058-3.108h-7.863c1.133-.454 2.27-1.254 3.238-2.637.637-.892 1.354-2.033 1.354-2.033l-3.638-2.05-2.825 4.254c-1.93 2.646-4.33 2.45-4.33 2.45l.025.017h-.738c-5.713 0-7.904-3.733-7.904-3.733l-.667.4 3.083 4.692a.37.37 0 0 1 .042.05l3.67 5.533c.258.467 1.292 2.558 1.292 6.463l-.008 4.754c1.05-.23 3.78-.204 5.013 0l-.017-2.654c0-1.134-.496-2.367-1.187-3.56.85.367 1.83.604 2.97.604h2.53s-.258-.92-.258-2.392c0-1.18.258-2.2.258-2.2l-6.425.017c-2.263 0-3.983-2.154-3.992-2.163l-1.658-2.5c1.692.97 3.896 1.313 7.25 1.313h12.875c.42.846 1.342 3.133 1.342 7.02l-.008 2.904c1.846-.283 3.467-.35 5.217-.07.025.033.042.063.067.104.18.325.513 1.204.513 3.258v4.93c.675-.333 3.367-.367 4.27 0 0-1.683.092-2.93-.896-4.587a6.21 6.21 0 0 0 2.046.342h2.204s-.496-.742-.496-1.904c0-.946.3-1.758.3-1.758zm-124.068-239.88c.854 1.425.192 1.862-1.496 3.225l-12.158-4.242-.367-.725c.7-.504 4.542-1.154 4.542-1.154l.054-.18c-1.408-1.75-1.967-3.196-1.967-3.196l-.18-.058-4.583 1.492 1.496 3.308-3.3 1.87s.746 1.158 1.58 3.47l.15.054c.262-.758.996-1.646 1.267-1.546l12.5 4.362c.775.267.838.958.838.958l.154.05c1.292-1.3 2.83-2.704 4.313-3.7l-2.18-4.308-.662.317zm38.142-58.338l-.12-.104c-.6.675-1.754.817-1.754.817l-9.95-9.004c-.53-.483-.387-1.062-.387-1.062l-.15-.13-4.117.625s.28 1.175.117 3.813l.108.104s1.233-1.45 2.042-.712l9.75 8.83c.796.72.458 1.254.458 1.254l.142.117 4.075-.812-.213-3.733zm-30.338 43.096c-.37.833-1.404 1.333-1.404 1.333l-13.342-5.88c-.658-.287-.708-.883-.708-.883l-.17-.07-4.662 3.217s.77 1.712 1.108 6.987l11.52 5.088c.758.325.775 1.02.775 1.02l.146.067 4.588-2.888 1.783 3.663 3.696-2.896-3.192-8.687-.137-.07zm-6.02 6.516l-12.917-5.612-.033-.17 2.92-1.958 12.038 5.308.475.996-2.483 1.438zm4.57 1.55l-1.633-3.58 4.417 1.95-2.783 1.63zm6.188-19.192c.587 1.55-.708 2.13-3.146 3.646l-4.008-2.27c-.817-2.733-1.213-4.763-1.62-7.783l-.163-.092-6.77.063c.046 1.93-.07 4.37-.52 6.804l11.525 6.5c.717.396.654 1.083.654 1.083l.142.083c1.442-1.15 3.925-2.596 6-3.612l-1.4-4.675-.692.246zm-14.975-3.038l5.825-.154a134.2 134.2 0 0 0 1.03 4.025l-6.854-3.87zm22.013-5.47l3.883-1.496-.846-3.637-.133-.087c-.488.766-1.588 1.104-1.588 1.104l-11.35-7.188c-.608-.383-.57-.983-.57-.983l-.162-.1-4.33 1.892.496 3.642-3.692 1.417s.463 1.304.754 3.742l.137.083c.425-.68 1.33-1.375 1.575-1.217l11.65 7.375c.688.442.604 1.13.604 1.13l.138.083 3.454-1.158-.738-3.458-.113-.07-1.337.513-11.588-7.342-.175-1.637 1.983-.9 11.125 7.046c.904.58.667 1.158.667 1.158l.154.092zm58.225 62.992l2.192 3.5 2.196-3.5-2.196-3.513-2.192 3.513zm20.438 3.696l2.188-3.504-2.188-3.508-2.196 3.508 2.196 3.504zm-53.57-.096l2.183-3.504-2.183-3.513-2.196 3.513 2.196 3.504zm-55.27-15.74c-1.496-2.438-2.392-4.304-3.558-7.113l-.175-.05-6.546 1.792a33.07 33.07 0 0 1 1.242 6.708l12.8 3.35a1.23 1.23 0 0 1 .913.888l.154.037c1.104-1.475 3.125-3.504 4.88-5.017l-2.542-4.167-.604.425c.963 1.342-.15 2.23-2.113 4.317l-4.45-1.17zm-8.696-2.275l5.604-1.634 1.996 3.63-7.6-1.996zm84.104 14.512l-2.187-3.513-2.192 3.513 2.192 3.504 2.188-3.504zm-80.783 25.662c-2.067-1.98-3.408-3.558-5.25-5.98l-.18-.008-5.875 3.4a33.17 33.17 0 0 1 2.904 6.167l13.225-.008c.82 0 1.117.625 1.117.625h.162c.683-1.708 2.138-4.187 3.438-6.083l-3.52-3.387-.475.554c1.275 1.058.43 2.204-.946 4.72h-4.6zm-8.992.008l5-3.013a135.46 135.46 0 0 0 2.867 3.004l-7.867.008zm20.896 54.367l-12.27 4.07c-.692.225-1.125-.17-1.125-.17l-.18.054-1.308 4.437 3.917 2.3-6.263 2.075-1.667 3.396s1.308.454 3.383 1.775l.142-.05c-.254-.767-.208-1.904.058-1.996l18.77-6.233c1.02-.342 1.308.204 1.308.204l.17-.058 1.304-3.954-3.363-1.65-.142.054c.275.854-.154 1.93-.154 1.93l-12.883 4.275-1.467-.854.613-2.142 13.304-4.42c3.817-1.267 4.575-1.146 4.575-1.146l.08-.325s-4.17-2.442-6.804-1.57zM1774 1657.838l.154.02s.17-1.892 1.258-1.762l18.758 2.246c1.063.13 1.1.758 1.1.758l.175.02 2.854-3.02-2.33-2.93-.154-.017c-.113.904-.958 1.675-.958 1.675l-19.02-2.27c-.713-.083-.942-.638-.942-.638l-.187-.03-3.004 2.9s.904.792 2.296 3.046zm18.942 57.062c-2.53-1.325-4.267-2.467-6.7-4.28l-.187.05-4.683 4.896c1.417 1.313 3.087 3.1 4.512 5.12l12.692-3.713c.792-.217 1.246.296 1.246.296l.154-.042c.188-1.833.88-4.617 1.604-6.812l-4.32-2.263-.304.667c1.517.65 1.02 1.987.408 4.796l-4.42 1.283zm-8.62 2.517l3.958-4.292 3.592 2.092-7.55 2.2zm-9.004-70.47c.154-.792.742-1.775 1.03-1.717l18.292 3.496c.813.154.98.825.98.825l.162.02 4.017-4.142-2.8-6.696-12.408-2.337c-.708-.138-.904-.696-.904-.696l-.18-.037-3.808 4.025 1.82 2.938-5.342-1.058-3.087 2.154s.912 1.033 2.083 3.192l.146.033zm8.704-7.025l13.717 2.588.07.104-2.392 2.617-13.204-2.483-.296-.554 2.104-2.27zm9.446 53.43l2.504 2.558s1.758-1.263 2.554-2.508l-2.508-2.554s-1.817 1.283-2.55 2.504zm-14.838 12.25l3.25 1.912.15-.025c-.167-.904.412-1.896.412-1.896l6.08-4.617 12.225 4.07s-1.646-3.192-1.762-3.867c-6.608-2.033-18.667-6.15-19.95-6.867l-.158.025-1.742 3.204 2.896 2.03.133-.025c-.125-.646.625-1.287.625-1.287l4.525 1.46-5.646 3.97-1.037 1.913zm25.058 34.708c0 1.604-.15 3.63.375 5.608-2.017-1.775-4.075-2.004-7.354-2.004.262 1.546.337 3.737 0 5.275h4.658c3.242 0 6.07 2.058 6.354 2.262l1.188 1.788c-1.088-.692-2.275-.796-4.35-.796.225 1.296.283 3.125 0 4.412h4.096c1.387 0 2.675.746 3.454 1.317l-.004 4.092c0 4.154 1.863 7.788 3.7 10.542l.53.788c-1.896-1.392-3.63-1.22-7.325-1.17l-.446-.588-6.317-9.53c-.154-.25-.67-1.284-.67-4.013v-4.742c-1.183.388-3.858.42-4.896 0 0 2.034.03 3.092 1.237 4.783-1.22-.488-2.596-.58-4.425-.58.22 1.304.287 3.133 0 4.412h4.996c2.517 0 3.958 1.817 4.1 2l1.804 2.72c-1.77-1.425-3.567-1.63-6.654-1.63.288 1.596.354 3.842 0 5.42h5.63c1.85 0 3.512 1.1 4.404 1.817.583 1.242.717 2.863.358 4.5l4.108.13c5.537 0 9.037 4.237 9.825 5.304l.633.954c.08 1.18.304 2.3.638 3.375l-.013-.017c-3.496-4.158-5.183-3.92-12.662-3.92.287 1.28.38 3.533.13 4.575h6.388c5.588 0 8.82 4.896 8.82 4.896l.004-.004.45.692a115.92 115.92 0 0 0 2.925 4.196l.646-.404s-1.058-1.5-1.567-2.304c-1.058-1.683-1.138-6.617-1.138-9.23l.067-13.2v-3.867c-2.117.367-4.717-.17-4.717-.17l-.008 13.867-3.43-5.192-1.404-2.23c-1.058-1.683-1.096-6.825-1.104-9.437 0-.646.067-1.117.067-1.67 0-1.137.1-5.208 1.663-5.208a12.91 12.91 0 0 0 .025-.871l-5.975.008-.17-.22-3.046-4.596s-.742-1.887-.742-4.583v-7.567c-.792.4-3.796.43-4.854 0zm-23.092-53.508l12.838-1a1.23 1.23 0 0 1 1.162.537l.154-.017 2.804-5.054-4.463-5.73-13.904 1.092c-.72.058-1.05-.437-1.05-.437l-.183.016c-2.158 3.888-4.154 7.1-6.725 11.088 0 0 1.254.654 3.067 2.492l.158-.017c-.08-.958 3.558-6.625 3.558-6.625l2.583 3.654zm-.754-6.642l14.958-1.18.092.1-1.63 3.146-14.242 1.117-.592-.775 1.412-2.408" fill-rule="nonzero"/></g></g></svg>